<svg width="685" height="457" viewBox="0 0 685 457" fill="none" xmlns="http://www.w3.org/2000/svg">
<g id="Sala1">
<rect width="685" height="457" fill="white"/>
<rect id="Rectangle 1" x="12" y="14" width="657" height="428" fill="#D9D9D9"/>
<circle id="A1" cx="156.5" cy="302.5" r="7.5" fill="white"/>
<circle id="A2" cx="176.5" cy="302.5" r="7.5" fill="white"/>
<circle id="A4" cx="216.5" cy="302.5" r="7.5" fill="white"/>
<circle id="Ellipse 6" cx="256.5" cy="302.5" r="7.5" fill="white"/>
<circle id="Ellipse 7" cx="276.5" cy="302.5" r="7.5" fill="white"/>
<circle id="Ellipse 8" cx="296.5" cy="302.5" r="7.5" fill="white"/>
<circle id="Ellipse 9" cx="316.5" cy="302.5" r="7.5" fill="white"/>
<circle id="Ellipse 10" cx="336.5" cy="302.5" r="7.5" fill="white"/>
<circle id="Ellipse 11" cx="356.5" cy="302.5" r="7.5" fill="white"/>
<circle id="Ellipse 12" cx="376.5" cy="302.5" r="7.5" fill="white"/>
<circle id="Ellipse 13" cx="396.5" cy="302.5" r="7.5" fill="white"/>
<circle id="Ellipse 14" cx="416.5" cy="302.5" r="7.5" fill="white"/>
<circle id="Ellipse 15" cx="436.5" cy="302.5" r="7.5" fill="white"/>
<circle id="Ellipse 16" cx="436.5" cy="302.5" r="7.5" fill="white"/>
<circle id="Ellipse 17" cx="456.5" cy="302.5" r="7.5" fill="white"/>
<circle id="Ellipse 18" cx="476.5" cy="302.5" r="7.5" fill="white"/>
<circle id="Ellipse 19" cx="496.5" cy="302.5" r="7.5" fill="white"/>
<circle id="Ellipse 20" cx="516.5" cy="302.5" r="7.5" fill="white"/>
<circle id="A5" cx="236.5" cy="302.5" r="7.5" fill="white"/>
<circle id="A3" cx="196.5" cy="302.5" r="7.5" fill="white"/>
<path id="SCENA" d="M315.477 423.185C313.889 423.185 312.62 422.821 311.671 422.095C310.728 421.368 310.235 420.299 310.194 418.887H312.875C312.922 419.543 313.18 420.038 313.648 420.372C314.123 420.7 314.721 420.864 315.441 420.864C316.145 420.864 316.707 420.715 317.129 420.416C317.557 420.117 317.771 419.728 317.771 419.247C317.771 418.808 317.577 418.471 317.19 418.236C316.804 417.996 316.253 417.791 315.538 417.621L314.105 417.27C313.004 417.006 312.134 416.587 311.495 416.013C310.862 415.433 310.546 414.659 310.546 413.692C310.546 412.901 310.76 412.21 311.188 411.618C311.615 411.021 312.201 410.558 312.945 410.229C313.695 409.896 314.548 409.729 315.503 409.729C316.476 409.729 317.325 409.896 318.052 410.229C318.778 410.563 319.344 411.026 319.748 411.618C320.158 412.21 320.369 412.893 320.381 413.666H317.709C317.662 413.156 317.445 412.758 317.059 412.471C316.672 412.184 316.147 412.04 315.485 412.04C314.812 412.04 314.293 412.181 313.93 412.462C313.566 412.737 313.385 413.089 313.385 413.517C313.385 413.979 313.587 414.331 313.991 414.571C314.396 414.806 314.882 414.99 315.45 415.125L316.619 415.415C317.381 415.585 318.058 415.834 318.649 416.162C319.241 416.484 319.707 416.9 320.047 417.41C320.387 417.914 320.557 418.529 320.557 419.256C320.557 420.457 320.108 421.412 319.212 422.121C318.315 422.83 317.07 423.185 315.477 423.185ZM328.282 423.176C327.116 423.176 326.073 422.912 325.153 422.385C324.233 421.857 323.507 421.093 322.974 420.091C322.446 419.089 322.183 417.879 322.183 416.461C322.183 415.031 322.449 413.815 322.982 412.813C323.521 411.812 324.251 411.047 325.171 410.52C326.097 409.992 327.134 409.729 328.282 409.729C329.296 409.729 330.207 409.916 331.016 410.291C331.83 410.666 332.495 411.208 333.011 411.917C333.526 412.626 333.843 413.484 333.96 414.492H331.165C331.06 413.771 330.752 413.206 330.242 412.796C329.732 412.38 329.1 412.172 328.344 412.172C327.336 412.172 326.524 412.547 325.909 413.297C325.294 414.041 324.986 415.096 324.986 416.461C324.986 417.855 325.294 418.916 325.909 419.643C326.53 420.369 327.339 420.732 328.335 420.732C329.067 420.732 329.688 420.539 330.198 420.152C330.714 419.766 331.036 419.224 331.165 418.526H333.96C333.86 419.329 333.573 420.085 333.099 420.794C332.63 421.503 331.988 422.077 331.174 422.517C330.365 422.956 329.401 423.176 328.282 423.176ZM335.955 423V409.904H344.779V412.189H338.715V415.266H344.313V417.507H338.715V420.715H344.797V423H335.955ZM357.928 409.904V423H355.528L349.842 414.765H349.736V423H346.977V409.904H349.402L355.054 418.14H355.168V409.904H357.928ZM362.463 423H359.492L364.019 409.904H367.578L372.096 423H369.134L368.158 420.012H363.43L362.463 423ZM364.133 417.85H367.455L365.847 412.893H365.741L364.133 417.85Z" fill="black"/>
<circle id="A1_2" cx="490.5" cy="348.5" r="7.5" fill="white"/>
<circle id="A1_3" cx="167.5" cy="318.5" r="7.5" fill="white"/>
<circle id="A1_4" cx="179.5" cy="333.5" r="7.5" fill="white"/>
<circle id="A1_5" cx="199.5" cy="333.5" r="7.5" fill="white"/>
<circle id="A1_6" cx="219.5" cy="333.5" r="7.5" fill="white"/>
<circle id="A1_7" cx="239.5" cy="333.5" r="7.5" fill="white"/>
<circle id="A1_8" cx="259.5" cy="333.5" r="7.5" fill="white"/>
<circle id="A1_9" cx="279.5" cy="333.5" r="7.5" fill="white"/>
<circle id="A1_10" cx="299.5" cy="333.5" r="7.5" fill="white"/>
<circle id="A1_11" cx="319.5" cy="333.5" r="7.5" fill="white"/>
<circle id="A16" cx="190.5" cy="348.5" r="7.5" fill="white"/>
<circle id="A1_12" cx="200.5" cy="363.5" r="7.5" fill="white"/>
<circle id="A2_2" cx="220.5" cy="363.5" r="7.5" fill="white"/>
<circle id="A3_2" cx="240.5" cy="363.5" r="7.5" fill="white"/>
<circle id="A4_2" cx="260.5" cy="363.5" r="7.5" fill="white"/>
<circle id="A5_2" cx="280.5" cy="363.5" r="7.5" fill="white"/>
<circle id="A6" cx="300.5" cy="363.5" r="7.5" fill="white"/>
<circle id="A7" cx="320.5" cy="363.5" r="7.5" fill="white"/>
<circle id="A8" cx="340.5" cy="363.5" r="7.5" fill="white"/>
<circle id="A9" cx="360.5" cy="363.5" r="7.5" fill="white"/>
<circle id="A10" cx="380.5" cy="363.5" r="7.5" fill="white"/>
<circle id="A11" cx="400.5" cy="363.5" r="7.5" fill="white"/>
<circle id="A12" cx="420.5" cy="363.5" r="7.5" fill="white"/>
<circle id="A13" cx="440.5" cy="363.5" r="7.5" fill="white"/>
<circle id="A14" cx="460.5" cy="363.5" r="7.5" fill="white"/>
<circle id="A15" cx="480.5" cy="363.5" r="7.5" fill="white"/>
<path id="R1" d="M176.648 367V361.18H178.938C179.599 361.18 180.112 361.353 180.477 361.699C180.844 362.046 181.027 362.507 181.027 363.082C181.027 363.48 180.939 363.822 180.762 364.105C180.585 364.387 180.331 364.598 180 364.738L181.234 367H179.875L178.773 364.938H177.875V367H176.648ZM177.875 363.949H178.707C179.41 363.949 179.762 363.66 179.762 363.082C179.762 362.793 179.674 362.572 179.5 362.418C179.326 362.264 179.06 362.188 178.703 362.188H177.875V363.949ZM184.352 361.18V367H183.125V362.348H183.09L181.758 363.188V362.094L183.199 361.18H184.352Z" fill="black"/>
<path id="R2" d="M166.859 352V346.18H169.148C169.81 346.18 170.323 346.353 170.688 346.699C171.055 347.046 171.238 347.507 171.238 348.082C171.238 348.48 171.15 348.822 170.973 349.105C170.796 349.387 170.542 349.598 170.211 349.738L171.445 352H170.086L168.984 349.938H168.086V352H166.859ZM168.086 348.949H168.918C169.621 348.949 169.973 348.66 169.973 348.082C169.973 347.793 169.885 347.572 169.711 347.418C169.536 347.264 169.271 347.188 168.914 347.188H168.086V348.949ZM172.078 352V351.117L174.152 349.195C174.415 348.94 174.616 348.719 174.754 348.531C174.892 348.344 174.961 348.135 174.961 347.906C174.961 347.651 174.876 347.449 174.707 347.301C174.54 347.152 174.329 347.078 174.074 347.078C173.806 347.078 173.591 347.159 173.43 347.32C173.271 347.479 173.191 347.698 173.191 347.977H172.023C172.023 347.594 172.111 347.263 172.285 346.984C172.46 346.703 172.701 346.486 173.008 346.332C173.318 346.178 173.676 346.102 174.082 346.102C174.499 346.102 174.862 346.176 175.172 346.324C175.482 346.47 175.723 346.673 175.895 346.934C176.066 347.191 176.152 347.49 176.152 347.828C176.152 348.047 176.108 348.263 176.02 348.477C175.934 348.688 175.781 348.923 175.562 349.184C175.344 349.444 175.034 349.757 174.633 350.121L173.785 350.953V350.996H176.23V352H172.078Z" fill="black"/>
<path id="R3" d="M157.738 337V331.18H160.027C160.689 331.18 161.202 331.353 161.566 331.699C161.934 332.046 162.117 332.507 162.117 333.082C162.117 333.48 162.029 333.822 161.852 334.105C161.674 334.387 161.421 334.598 161.09 334.738L162.324 337H160.965L159.863 334.938H158.965V337H157.738ZM158.965 333.949H159.797C160.5 333.949 160.852 333.66 160.852 333.082C160.852 332.793 160.764 332.572 160.59 332.418C160.415 332.264 160.15 332.188 159.793 332.188H158.965V333.949ZM165.109 337.078C164.685 337.078 164.307 337.005 163.977 336.859C163.646 336.714 163.385 336.512 163.195 336.254C163.005 335.993 162.908 335.694 162.902 335.355H164.141C164.148 335.569 164.245 335.741 164.43 335.871C164.615 335.999 164.842 336.062 165.113 336.062C165.395 336.062 165.624 335.991 165.801 335.848C165.98 335.702 166.07 335.514 166.07 335.285C166.07 335.051 165.975 334.859 165.785 334.711C165.595 334.562 165.335 334.488 165.004 334.488H164.461V333.582H165.004C165.283 333.582 165.509 333.512 165.684 333.371C165.861 333.23 165.949 333.046 165.949 332.816C165.949 332.598 165.872 332.421 165.719 332.285C165.568 332.147 165.368 332.078 165.121 332.078C164.868 332.078 164.652 332.145 164.473 332.277C164.296 332.408 164.204 332.583 164.199 332.805H163.02C163.025 332.469 163.12 332.173 163.305 331.918C163.49 331.663 163.74 331.464 164.055 331.32C164.372 331.174 164.73 331.102 165.129 331.102C165.53 331.102 165.88 331.174 166.18 331.32C166.482 331.466 166.716 331.663 166.883 331.91C167.052 332.158 167.137 332.435 167.137 332.742C167.137 333.068 167.035 333.34 166.832 333.559C166.629 333.775 166.365 333.913 166.039 333.973V334.016C166.466 334.07 166.79 334.219 167.012 334.461C167.236 334.703 167.348 335.005 167.348 335.367C167.348 335.698 167.251 335.992 167.059 336.25C166.868 336.508 166.604 336.711 166.266 336.859C165.93 337.005 165.544 337.078 165.109 337.078Z" fill="black"/>
<path id="R4" d="M144.668 322V316.18H146.957C147.618 316.18 148.132 316.353 148.496 316.699C148.863 317.046 149.047 317.507 149.047 318.082C149.047 318.48 148.958 318.822 148.781 319.105C148.604 319.387 148.35 319.598 148.02 319.738L149.254 322H147.895L146.793 319.938H145.895V322H144.668ZM145.895 318.949H146.727C147.43 318.949 147.781 318.66 147.781 318.082C147.781 317.793 147.694 317.572 147.52 317.418C147.345 317.264 147.079 317.188 146.723 317.188H145.895V318.949ZM149.801 320.977V320.012L152.23 316.18H153.77V319.992H154.492V320.977H153.77V322H152.594V320.977H149.801ZM151.039 319.992H152.617V317.523H152.57L151.039 319.945V319.992Z" fill="black"/>
<path id="R5" d="M134.793 306V300.18H137.082C137.743 300.18 138.257 300.353 138.621 300.699C138.988 301.046 139.172 301.507 139.172 302.082C139.172 302.48 139.083 302.822 138.906 303.105C138.729 303.387 138.475 303.598 138.145 303.738L139.379 306H138.02L136.918 303.938H136.02V306H134.793ZM136.02 302.949H136.852C137.555 302.949 137.906 302.66 137.906 302.082C137.906 301.793 137.819 301.572 137.645 301.418C137.47 301.264 137.204 301.188 136.848 301.188H136.02V302.949ZM142.145 306.078C141.743 306.078 141.384 306.005 141.066 305.859C140.751 305.711 140.503 305.507 140.32 305.246C140.138 304.986 140.043 304.689 140.035 304.355H141.23C141.241 304.579 141.335 304.762 141.512 304.902C141.689 305.04 141.9 305.109 142.145 305.109C142.431 305.109 142.665 305.016 142.848 304.828C143.033 304.638 143.125 304.392 143.125 304.09C143.125 303.785 143.031 303.536 142.844 303.344C142.659 303.151 142.419 303.055 142.125 303.055C141.951 303.055 141.784 303.09 141.625 303.16C141.469 303.23 141.346 303.326 141.258 303.445L140.156 303.25L140.434 300.18H143.992V301.188H141.449L141.301 302.645H141.332C141.436 302.501 141.591 302.383 141.797 302.289C142.003 302.195 142.233 302.148 142.488 302.148C142.84 302.148 143.152 302.23 143.426 302.395C143.702 302.559 143.918 302.784 144.074 303.07C144.233 303.357 144.312 303.686 144.312 304.059C144.312 304.449 144.221 304.797 144.039 305.102C143.857 305.406 143.603 305.646 143.277 305.82C142.952 305.992 142.574 306.078 142.145 306.078Z" fill="black"/>
<circle id="A17" cx="210.5" cy="348.5" r="7.5" fill="white"/>
<circle id="A18" cx="230.5" cy="348.5" r="7.5" fill="white"/>
<circle id="A19" cx="250.5" cy="348.5" r="7.5" fill="white"/>
<circle id="A20" cx="270.5" cy="348.5" r="7.5" fill="white"/>
<circle id="A1_13" cx="339.5" cy="333.5" r="7.5" fill="white"/>
<circle id="A1_14" cx="359.5" cy="333.5" r="7.5" fill="white"/>
<circle id="A1_15" cx="379.5" cy="333.5" r="7.5" fill="white"/>
<circle id="A1_16" cx="399.5" cy="333.5" r="7.5" fill="white"/>
<circle id="A1_17" cx="419.5" cy="333.5" r="7.5" fill="white"/>
<circle id="A1_18" cx="439.5" cy="333.5" r="7.5" fill="white"/>
<circle id="A1_19" cx="459.5" cy="333.5" r="7.5" fill="white"/>
<circle id="A1_20" cx="479.5" cy="333.5" r="7.5" fill="white"/>
<circle id="A1_21" cx="499.5" cy="333.5" r="7.5" fill="white"/>
<circle id="A1_22" cx="187.5" cy="318.5" r="7.5" fill="white"/>
<circle id="A1_23" cx="207.5" cy="318.5" r="7.5" fill="white"/>
<circle id="A1_24" cx="227.5" cy="318.5" r="7.5" fill="white"/>
<circle id="A1_25" cx="247.5" cy="318.5" r="7.5" fill="white"/>
<circle id="A1_26" cx="267.5" cy="318.5" r="7.5" fill="white"/>
<circle id="A1_27" cx="287.5" cy="318.5" r="7.5" fill="white"/>
<circle id="A1_28" cx="307.5" cy="318.5" r="7.5" fill="white"/>
<circle id="A1_29" cx="327.5" cy="318.5" r="7.5" fill="white"/>
<circle id="A1_30" cx="347.5" cy="318.5" r="7.5" fill="white"/>
<circle id="A1_31" cx="367.5" cy="318.5" r="7.5" fill="white"/>
<circle id="A1_32" cx="387.5" cy="318.5" r="7.5" fill="white"/>
<circle id="A1_33" cx="407.5" cy="318.5" r="7.5" fill="white"/>
<circle id="A1_34" cx="427.5" cy="318.5" r="7.5" fill="white"/>
<circle id="A1_35" cx="447.5" cy="318.5" r="7.5" fill="white"/>
<circle id="A1_36" cx="467.5" cy="318.5" r="7.5" fill="white"/>
<circle id="A1_37" cx="487.5" cy="318.5" r="7.5" fill="white"/>
<circle id="A1_38" cx="507.5" cy="318.5" r="7.5" fill="white"/>
<circle id="A1_39" cx="290.5" cy="348.5" r="7.5" fill="white"/>
<circle id="A1_40" cx="310.5" cy="348.5" r="7.5" fill="white"/>
<circle id="A1_41" cx="330.5" cy="348.5" r="7.5" fill="white"/>
<circle id="A1_42" cx="350.5" cy="348.5" r="7.5" fill="white"/>
<circle id="A1_43" cx="370.5" cy="348.5" r="7.5" fill="white"/>
<circle id="A1_44" cx="390.5" cy="348.5" r="7.5" fill="white"/>
<circle id="A1_45" cx="410.5" cy="348.5" r="7.5" fill="white"/>
<circle id="A1_46" cx="430.5" cy="348.5" r="7.5" fill="white"/>
<circle id="A1_47" cx="450.5" cy="348.5" r="7.5" fill="white"/>
<circle id="A1_48" cx="470.5" cy="348.5" r="7.5" fill="white"/>
</g>
</svg>
