<svg width="685" height="457" viewBox="0 0 685 457" fill="none" xmlns="http://www.w3.org/2000/svg">
<g id="Sala1">
<rect width="685" height="457" fill="white"/>
<rect id="Rectangle 1" x="12" y="14" width="657" height="428" fill="#D9D9D9"/>
<path id="Loja 1" d="M581.114 389V381.725H582.647V387.73H585.768V389H581.114ZM589.229 389.107C588.679 389.107 588.202 388.99 587.799 388.756C587.398 388.518 587.089 388.189 586.871 387.77C586.656 387.346 586.549 386.855 586.549 386.295C586.549 385.732 586.656 385.239 586.871 384.815C587.089 384.392 587.398 384.063 587.799 383.829C588.202 383.591 588.679 383.473 589.229 383.473C589.783 383.473 590.26 383.591 590.66 383.829C591.064 384.063 591.373 384.392 591.588 384.815C591.806 385.239 591.915 385.732 591.915 386.295C591.915 386.855 591.806 387.346 591.588 387.77C591.373 388.189 591.064 388.518 590.66 388.756C590.26 388.99 589.783 389.107 589.229 389.107ZM588.087 386.285C588.087 386.76 588.183 387.153 588.375 387.462C588.567 387.771 588.854 387.926 589.234 387.926C589.612 387.926 589.897 387.771 590.089 387.462C590.281 387.153 590.377 386.76 590.377 386.285C590.377 385.81 590.281 385.419 590.089 385.113C589.897 384.807 589.612 384.654 589.234 384.654C588.854 384.654 588.567 384.807 588.375 385.113C588.183 385.419 588.087 385.81 588.087 386.285ZM592.911 383.541H594.425V389.273C594.425 389.902 594.239 390.353 593.868 390.626C593.5 390.903 592.996 391.041 592.354 391.041H592.052V389.859H592.247C592.491 389.859 592.662 389.807 592.76 389.703C592.861 389.602 592.911 389.451 592.911 389.249V383.541ZM593.663 382.843C593.438 382.843 593.245 382.768 593.082 382.618C592.923 382.468 592.843 382.288 592.843 382.076C592.843 381.865 592.923 381.686 593.082 381.539C593.245 381.389 593.438 381.314 593.663 381.314C593.888 381.314 594.08 381.389 594.239 381.539C594.402 381.686 594.483 381.865 594.483 382.076C594.483 382.288 594.402 382.468 594.239 382.618C594.08 382.768 593.888 382.843 593.663 382.843ZM597.193 389.103C596.673 389.103 596.24 388.967 595.895 388.697C595.553 388.424 595.382 388.017 595.382 387.477C595.382 387.07 595.476 386.751 595.665 386.52C595.857 386.285 596.109 386.114 596.422 386.007C596.734 385.896 597.07 385.825 597.428 385.792C597.903 385.746 598.242 385.699 598.443 385.65C598.648 385.598 598.751 385.484 598.751 385.309V385.284C598.751 385.06 598.679 384.885 598.536 384.762C598.393 384.638 598.186 384.576 597.916 384.576C597.646 384.576 597.424 384.635 597.252 384.752C597.083 384.869 596.97 385.019 596.915 385.201L595.538 384.981C595.668 384.506 595.942 384.137 596.358 383.873C596.778 383.606 597.299 383.473 597.921 383.473C598.325 383.473 598.704 383.536 599.059 383.663C599.417 383.79 599.706 383.99 599.928 384.264C600.149 384.534 600.26 384.885 600.26 385.318V389H598.829V388.238H598.785C598.652 388.495 598.453 388.704 598.189 388.863C597.929 389.023 597.597 389.103 597.193 389.103ZM596.822 387.428C596.822 387.636 596.897 387.794 597.047 387.901C597.2 388.006 597.392 388.058 597.623 388.058C597.955 388.058 598.227 387.962 598.438 387.77C598.653 387.577 598.761 387.338 598.761 387.052V386.471C598.702 386.51 598.609 386.546 598.482 386.578C598.359 386.611 598.227 386.638 598.087 386.661C597.947 386.681 597.822 386.699 597.711 386.715C597.444 386.754 597.229 386.83 597.066 386.944C596.904 387.055 596.822 387.216 596.822 387.428ZM606.886 381.725V389H605.353V383.185H605.309L603.644 384.234V382.867L605.445 381.725H606.886Z" fill="black"/>
<path id="Loja 2" d="M580.128 248V240.725H581.661V246.73H584.781V248H580.128ZM588.243 248.107C587.693 248.107 587.216 247.99 586.812 247.756C586.412 247.518 586.103 247.189 585.885 246.77C585.67 246.346 585.562 245.855 585.562 245.295C585.562 244.732 585.67 244.239 585.885 243.815C586.103 243.392 586.412 243.063 586.812 242.829C587.216 242.591 587.693 242.473 588.243 242.473C588.797 242.473 589.273 242.591 589.674 242.829C590.077 243.063 590.387 243.392 590.602 243.815C590.82 244.239 590.929 244.732 590.929 245.295C590.929 245.855 590.82 246.346 590.602 246.77C590.387 247.189 590.077 247.518 589.674 247.756C589.273 247.99 588.797 248.107 588.243 248.107ZM587.101 245.285C587.101 245.76 587.197 246.153 587.389 246.462C587.581 246.771 587.867 246.926 588.248 246.926C588.626 246.926 588.91 246.771 589.103 246.462C589.295 246.153 589.391 245.76 589.391 245.285C589.391 244.81 589.295 244.419 589.103 244.113C588.91 243.807 588.626 243.654 588.248 243.654C587.867 243.654 587.581 243.807 587.389 244.113C587.197 244.419 587.101 244.81 587.101 245.285ZM591.925 242.541H593.438V248.273C593.438 248.902 593.253 249.353 592.882 249.626C592.514 249.903 592.009 250.041 591.368 250.041H591.065V248.859H591.261C591.505 248.859 591.676 248.807 591.773 248.703C591.874 248.602 591.925 248.451 591.925 248.249V242.541ZM592.677 241.843C592.452 241.843 592.258 241.768 592.096 241.618C591.936 241.468 591.856 241.288 591.856 241.076C591.856 240.865 591.936 240.686 592.096 240.539C592.258 240.389 592.452 240.314 592.677 240.314C592.901 240.314 593.093 240.389 593.253 240.539C593.416 240.686 593.497 240.865 593.497 241.076C593.497 241.288 593.416 241.468 593.253 241.618C593.093 241.768 592.901 241.843 592.677 241.843ZM596.207 248.103C595.686 248.103 595.253 247.967 594.908 247.697C594.566 247.424 594.396 247.017 594.396 246.477C594.396 246.07 594.49 245.751 594.679 245.52C594.871 245.285 595.123 245.114 595.436 245.007C595.748 244.896 596.083 244.825 596.441 244.792C596.917 244.746 597.255 244.699 597.457 244.65C597.662 244.598 597.765 244.484 597.765 244.309V244.284C597.765 244.06 597.693 243.885 597.55 243.762C597.407 243.638 597.2 243.576 596.93 243.576C596.66 243.576 596.438 243.635 596.266 243.752C596.096 243.869 595.984 244.019 595.929 244.201L594.552 243.981C594.682 243.506 594.955 243.137 595.372 242.873C595.792 242.606 596.313 242.473 596.935 242.473C597.338 242.473 597.717 242.536 598.072 242.663C598.43 242.79 598.72 242.99 598.941 243.264C599.163 243.534 599.273 243.885 599.273 244.318V248H597.843V247.238H597.799C597.665 247.495 597.467 247.704 597.203 247.863C596.943 248.023 596.611 248.103 596.207 248.103ZM595.836 246.428C595.836 246.636 595.911 246.794 596.061 246.901C596.214 247.006 596.406 247.058 596.637 247.058C596.969 247.058 597.241 246.962 597.452 246.77C597.667 246.577 597.774 246.338 597.774 246.052V245.471C597.716 245.51 597.623 245.546 597.496 245.578C597.372 245.611 597.241 245.638 597.101 245.661C596.961 245.681 596.835 245.699 596.725 245.715C596.458 245.754 596.243 245.83 596.08 245.944C595.917 246.055 595.836 246.216 595.836 246.428ZM602.794 248V246.896L605.387 244.494C605.715 244.175 605.966 243.898 606.139 243.664C606.311 243.43 606.397 243.169 606.397 242.883C606.397 242.564 606.292 242.312 606.08 242.126C605.872 241.94 605.608 241.848 605.289 241.848C604.954 241.848 604.685 241.949 604.483 242.15C604.285 242.349 604.186 242.622 604.186 242.971H602.726C602.726 242.492 602.835 242.079 603.053 241.73C603.271 241.379 603.572 241.107 603.956 240.915C604.343 240.723 604.791 240.627 605.299 240.627C605.82 240.627 606.274 240.72 606.661 240.905C607.049 241.088 607.35 241.341 607.564 241.667C607.779 241.989 607.887 242.362 607.887 242.785C607.887 243.059 607.831 243.329 607.721 243.596C607.613 243.859 607.423 244.154 607.149 244.479C606.876 244.805 606.489 245.196 605.987 245.651L604.928 246.691V246.745H607.984V248H602.794Z" fill="black"/>
<path id="Loja 3" d="M544.977 123V115.725H546.51V121.73H549.63V123H544.977ZM553.092 123.107C552.542 123.107 552.065 122.99 551.661 122.756C551.261 122.518 550.951 122.189 550.733 121.77C550.519 121.346 550.411 120.855 550.411 120.295C550.411 119.732 550.519 119.239 550.733 118.815C550.951 118.392 551.261 118.063 551.661 117.829C552.065 117.591 552.542 117.473 553.092 117.473C553.645 117.473 554.122 117.591 554.522 117.829C554.926 118.063 555.235 118.392 555.45 118.815C555.668 119.239 555.777 119.732 555.777 120.295C555.777 120.855 555.668 121.346 555.45 121.77C555.235 122.189 554.926 122.518 554.522 122.756C554.122 122.99 553.645 123.107 553.092 123.107ZM551.949 120.285C551.949 120.76 552.045 121.153 552.237 121.462C552.429 121.771 552.716 121.926 553.097 121.926C553.474 121.926 553.759 121.771 553.951 121.462C554.143 121.153 554.239 120.76 554.239 120.285C554.239 119.81 554.143 119.419 553.951 119.113C553.759 118.807 553.474 118.654 553.097 118.654C552.716 118.654 552.429 118.807 552.237 119.113C552.045 119.419 551.949 119.81 551.949 120.285ZM556.773 117.541H558.287V123.273C558.287 123.902 558.102 124.353 557.73 124.626C557.363 124.903 556.858 125.041 556.217 125.041H555.914V123.859H556.109C556.354 123.859 556.524 123.807 556.622 123.703C556.723 123.602 556.773 123.451 556.773 123.249V117.541ZM557.525 116.843C557.301 116.843 557.107 116.768 556.944 116.618C556.785 116.468 556.705 116.288 556.705 116.076C556.705 115.865 556.785 115.686 556.944 115.539C557.107 115.389 557.301 115.314 557.525 115.314C557.75 115.314 557.942 115.389 558.102 115.539C558.264 115.686 558.346 115.865 558.346 116.076C558.346 116.288 558.264 116.468 558.102 116.618C557.942 116.768 557.75 116.843 557.525 116.843ZM561.056 123.103C560.535 123.103 560.102 122.967 559.757 122.697C559.415 122.424 559.244 122.017 559.244 121.477C559.244 121.07 559.339 120.751 559.527 120.52C559.719 120.285 559.972 120.114 560.284 120.007C560.597 119.896 560.932 119.825 561.29 119.792C561.765 119.746 562.104 119.699 562.306 119.65C562.511 119.598 562.613 119.484 562.613 119.309V119.284C562.613 119.06 562.542 118.885 562.398 118.762C562.255 118.638 562.049 118.576 561.778 118.576C561.508 118.576 561.287 118.635 561.114 118.752C560.945 118.869 560.833 119.019 560.777 119.201L559.4 118.981C559.531 118.506 559.804 118.137 560.221 117.873C560.641 117.606 561.161 117.473 561.783 117.473C562.187 117.473 562.566 117.536 562.921 117.663C563.279 117.79 563.569 117.99 563.79 118.264C564.011 118.534 564.122 118.885 564.122 119.318V123H562.691V122.238H562.647C562.514 122.495 562.315 122.704 562.052 122.863C561.791 123.023 561.459 123.103 561.056 123.103ZM560.685 121.428C560.685 121.636 560.759 121.794 560.909 121.901C561.062 122.006 561.254 122.058 561.485 122.058C561.817 122.058 562.089 121.962 562.301 121.77C562.516 121.577 562.623 121.338 562.623 121.052V120.471C562.564 120.51 562.472 120.546 562.345 120.578C562.221 120.611 562.089 120.638 561.949 120.661C561.809 120.681 561.684 120.699 561.573 120.715C561.306 120.754 561.091 120.83 560.929 120.944C560.766 121.055 560.685 121.216 560.685 121.428ZM570.333 123.098C569.802 123.098 569.33 123.007 568.917 122.824C568.504 122.642 568.178 122.39 567.94 122.067C567.703 121.742 567.581 121.368 567.574 120.944H569.122C569.132 121.211 569.252 121.426 569.483 121.589C569.715 121.748 569.999 121.828 570.338 121.828C570.689 121.828 570.976 121.739 571.197 121.56C571.422 121.377 571.534 121.143 571.534 120.856C571.534 120.563 571.415 120.324 571.178 120.139C570.94 119.953 570.615 119.86 570.201 119.86H569.522V118.728H570.201C570.549 118.728 570.833 118.64 571.051 118.464C571.272 118.288 571.383 118.057 571.383 117.771C571.383 117.497 571.287 117.276 571.095 117.106C570.906 116.934 570.657 116.848 570.348 116.848C570.032 116.848 569.762 116.931 569.537 117.097C569.316 117.259 569.202 117.479 569.195 117.756H567.721C567.727 117.336 567.846 116.966 568.077 116.647C568.308 116.328 568.621 116.079 569.015 115.9C569.412 115.718 569.859 115.627 570.357 115.627C570.859 115.627 571.297 115.718 571.671 115.9C572.049 116.083 572.341 116.328 572.55 116.638C572.761 116.947 572.867 117.294 572.867 117.678C572.867 118.085 572.74 118.425 572.486 118.698C572.232 118.968 571.902 119.141 571.495 119.216V119.27C572.029 119.338 572.434 119.523 572.711 119.826C572.991 120.129 573.131 120.507 573.131 120.959C573.131 121.372 573.01 121.74 572.77 122.062C572.532 122.385 572.201 122.639 571.778 122.824C571.358 123.007 570.877 123.098 570.333 123.098Z" fill="black"/>
<path id="Loja 5" d="M65.0449 249V241.725H66.5781V247.73H69.6982V249H65.0449ZM73.1602 249.107C72.61 249.107 72.1331 248.99 71.7295 248.756C71.3291 248.518 71.0199 248.189 70.8018 247.77C70.5869 247.346 70.4795 246.855 70.4795 246.295C70.4795 245.732 70.5869 245.239 70.8018 244.815C71.0199 244.392 71.3291 244.063 71.7295 243.829C72.1331 243.591 72.61 243.473 73.1602 243.473C73.7135 243.473 74.1904 243.591 74.5908 243.829C74.9945 244.063 75.3037 244.392 75.5186 244.815C75.7367 245.239 75.8457 245.732 75.8457 246.295C75.8457 246.855 75.7367 247.346 75.5186 247.77C75.3037 248.189 74.9945 248.518 74.5908 248.756C74.1904 248.99 73.7135 249.107 73.1602 249.107ZM72.0176 246.285C72.0176 246.76 72.1136 247.153 72.3057 247.462C72.4977 247.771 72.7842 247.926 73.165 247.926C73.5426 247.926 73.8275 247.771 74.0195 247.462C74.2116 247.153 74.3076 246.76 74.3076 246.285C74.3076 245.81 74.2116 245.419 74.0195 245.113C73.8275 244.807 73.5426 244.654 73.165 244.654C72.7842 244.654 72.4977 244.807 72.3057 245.113C72.1136 245.419 72.0176 245.81 72.0176 246.285ZM76.8418 243.541H78.3555V249.273C78.3555 249.902 78.1699 250.353 77.7988 250.626C77.431 250.903 76.9264 251.041 76.2852 251.041H75.9824V249.859H76.1777C76.4219 249.859 76.5928 249.807 76.6904 249.703C76.7913 249.602 76.8418 249.451 76.8418 249.249V243.541ZM77.5938 242.843C77.3691 242.843 77.1755 242.768 77.0127 242.618C76.8532 242.468 76.7734 242.288 76.7734 242.076C76.7734 241.865 76.8532 241.686 77.0127 241.539C77.1755 241.389 77.3691 241.314 77.5938 241.314C77.8184 241.314 78.0104 241.389 78.1699 241.539C78.3327 241.686 78.4141 241.865 78.4141 242.076C78.4141 242.288 78.3327 242.468 78.1699 242.618C78.0104 242.768 77.8184 242.843 77.5938 242.843ZM81.124 249.103C80.6032 249.103 80.1702 248.967 79.8252 248.697C79.4834 248.424 79.3125 248.017 79.3125 247.477C79.3125 247.07 79.4069 246.751 79.5957 246.52C79.7878 246.285 80.04 246.114 80.3525 246.007C80.665 245.896 81.0003 245.825 81.3584 245.792C81.8337 245.746 82.1722 245.699 82.374 245.65C82.5791 245.598 82.6816 245.484 82.6816 245.309V245.284C82.6816 245.06 82.61 244.885 82.4668 244.762C82.3236 244.638 82.1169 244.576 81.8467 244.576C81.5765 244.576 81.3551 244.635 81.1826 244.752C81.0133 244.869 80.901 245.019 80.8457 245.201L79.4688 244.981C79.599 244.506 79.8724 244.137 80.2891 243.873C80.709 243.606 81.2298 243.473 81.8516 243.473C82.2552 243.473 82.6344 243.536 82.9893 243.663C83.3473 243.79 83.637 243.99 83.8584 244.264C84.0798 244.534 84.1904 244.885 84.1904 245.318V249H82.7598V248.238H82.7158C82.5824 248.495 82.3838 248.704 82.1201 248.863C81.8597 249.023 81.5277 249.103 81.124 249.103ZM80.7529 247.428C80.7529 247.636 80.8278 247.794 80.9775 247.901C81.1305 248.006 81.3226 248.058 81.5537 248.058C81.8857 248.058 82.1576 247.962 82.3691 247.77C82.584 247.577 82.6914 247.338 82.6914 247.052V246.471C82.6328 246.51 82.54 246.546 82.4131 246.578C82.2894 246.611 82.1576 246.638 82.0176 246.661C81.8776 246.681 81.7523 246.699 81.6416 246.715C81.3747 246.754 81.1598 246.83 80.9971 246.944C80.8343 247.055 80.7529 247.216 80.7529 247.428ZM90.377 249.098C89.8757 249.098 89.4264 249.007 89.0293 248.824C88.6354 248.639 88.3245 248.383 88.0967 248.058C87.8688 247.732 87.75 247.361 87.7402 246.944H89.2344C89.2474 247.224 89.3646 247.452 89.5859 247.628C89.8073 247.8 90.071 247.887 90.377 247.887C90.735 247.887 91.028 247.77 91.2559 247.535C91.487 247.298 91.6025 246.99 91.6025 246.612C91.6025 246.231 91.4854 245.921 91.251 245.68C91.0199 245.439 90.7204 245.318 90.3525 245.318C90.1344 245.318 89.9261 245.362 89.7275 245.45C89.5322 245.538 89.3792 245.657 89.2686 245.807L87.8916 245.562L88.2383 241.725H92.6865V242.984H89.5078L89.3223 244.806H89.3613C89.4915 244.627 89.6852 244.479 89.9424 244.361C90.1995 244.244 90.4876 244.186 90.8066 244.186C91.2461 244.186 91.6367 244.288 91.9785 244.493C92.3236 244.698 92.5938 244.98 92.7891 245.338C92.9876 245.696 93.0869 246.108 93.0869 246.573C93.0869 247.062 92.973 247.496 92.7451 247.877C92.5173 248.258 92.1999 248.557 91.793 248.775C91.3861 248.99 90.9141 249.098 90.377 249.098Z" fill="black"/>
<path id="Loja 6" d="M65.9619 390V382.725H67.4951V388.73H70.6152V390H65.9619ZM74.0771 390.107C73.527 390.107 73.0501 389.99 72.6465 389.756C72.2461 389.518 71.9368 389.189 71.7188 388.77C71.5039 388.346 71.3965 387.855 71.3965 387.295C71.3965 386.732 71.5039 386.239 71.7188 385.815C71.9368 385.392 72.2461 385.063 72.6465 384.829C73.0501 384.591 73.527 384.473 74.0771 384.473C74.6305 384.473 75.1074 384.591 75.5078 384.829C75.9115 385.063 76.2207 385.392 76.4355 385.815C76.6536 386.239 76.7627 386.732 76.7627 387.295C76.7627 387.855 76.6536 388.346 76.4355 388.77C76.2207 389.189 75.9115 389.518 75.5078 389.756C75.1074 389.99 74.6305 390.107 74.0771 390.107ZM72.9346 387.285C72.9346 387.76 73.0306 388.153 73.2227 388.462C73.4147 388.771 73.7012 388.926 74.082 388.926C74.4596 388.926 74.7445 388.771 74.9365 388.462C75.1286 388.153 75.2246 387.76 75.2246 387.285C75.2246 386.81 75.1286 386.419 74.9365 386.113C74.7445 385.807 74.4596 385.654 74.082 385.654C73.7012 385.654 73.4147 385.807 73.2227 386.113C73.0306 386.419 72.9346 386.81 72.9346 387.285ZM77.7588 384.541H79.2725V390.273C79.2725 390.902 79.0869 391.353 78.7158 391.626C78.348 391.903 77.8434 392.041 77.2021 392.041H76.8994V390.859H77.0947C77.3389 390.859 77.5098 390.807 77.6074 390.703C77.7083 390.602 77.7588 390.451 77.7588 390.249V384.541ZM78.5107 383.843C78.2861 383.843 78.0924 383.768 77.9297 383.618C77.7702 383.468 77.6904 383.288 77.6904 383.076C77.6904 382.865 77.7702 382.686 77.9297 382.539C78.0924 382.389 78.2861 382.314 78.5107 382.314C78.7354 382.314 78.9274 382.389 79.0869 382.539C79.2497 382.686 79.3311 382.865 79.3311 383.076C79.3311 383.288 79.2497 383.468 79.0869 383.618C78.9274 383.768 78.7354 383.843 78.5107 383.843ZM82.041 390.103C81.5202 390.103 81.0872 389.967 80.7422 389.697C80.4004 389.424 80.2295 389.017 80.2295 388.477C80.2295 388.07 80.3239 387.751 80.5127 387.52C80.7048 387.285 80.957 387.114 81.2695 387.007C81.582 386.896 81.9173 386.825 82.2754 386.792C82.7507 386.746 83.0892 386.699 83.291 386.65C83.4961 386.598 83.5986 386.484 83.5986 386.309V386.284C83.5986 386.06 83.527 385.885 83.3838 385.762C83.2406 385.638 83.0339 385.576 82.7637 385.576C82.4935 385.576 82.2721 385.635 82.0996 385.752C81.9303 385.869 81.818 386.019 81.7627 386.201L80.3857 385.981C80.516 385.506 80.7894 385.137 81.2061 384.873C81.626 384.606 82.1468 384.473 82.7686 384.473C83.1722 384.473 83.5514 384.536 83.9062 384.663C84.2643 384.79 84.554 384.99 84.7754 385.264C84.9967 385.534 85.1074 385.885 85.1074 386.318V390H83.6768V389.238H83.6328C83.4993 389.495 83.3008 389.704 83.0371 389.863C82.7767 390.023 82.4447 390.103 82.041 390.103ZM81.6699 388.428C81.6699 388.636 81.7448 388.794 81.8945 388.901C82.0475 389.006 82.2396 389.058 82.4707 389.058C82.8027 389.058 83.0745 388.962 83.2861 388.77C83.501 388.577 83.6084 388.338 83.6084 388.052V387.471C83.5498 387.51 83.457 387.546 83.3301 387.578C83.2064 387.611 83.0745 387.638 82.9346 387.661C82.7946 387.681 82.6693 387.699 82.5586 387.715C82.2917 387.754 82.0768 387.83 81.9141 387.944C81.7513 388.055 81.6699 388.216 81.6699 388.428ZM91.4502 390.098C91.0758 390.098 90.7145 390.036 90.3662 389.912C90.0212 389.788 89.7103 389.588 89.4336 389.312C89.1602 389.035 88.9437 388.669 88.7842 388.213C88.6247 387.754 88.5449 387.192 88.5449 386.528C88.5449 385.715 88.6654 385.016 88.9062 384.434C89.1504 383.851 89.4938 383.405 89.9365 383.096C90.3792 382.783 90.9001 382.627 91.499 382.627C91.984 382.627 92.4121 382.721 92.7832 382.91C93.1543 383.099 93.4521 383.354 93.6768 383.677C93.9046 383.996 94.043 384.355 94.0918 384.756H92.583C92.5212 384.502 92.3942 384.303 92.2021 384.16C92.0133 384.017 91.779 383.945 91.499 383.945C91.027 383.945 90.6673 384.15 90.4199 384.561C90.1758 384.971 90.0537 385.531 90.0537 386.24H90.1025C90.2653 385.921 90.5111 385.671 90.8398 385.488C91.1686 385.306 91.5316 385.215 91.9287 385.215C92.3617 385.215 92.7458 385.316 93.0811 385.518C93.4163 385.719 93.68 385.998 93.8721 386.353C94.0674 386.704 94.165 387.108 94.165 387.563C94.165 388.055 94.0511 388.493 93.8232 388.877C93.5954 389.258 93.278 389.557 92.8711 389.775C92.4642 389.99 91.9906 390.098 91.4502 390.098ZM90.2051 387.607C90.2051 387.842 90.2588 388.057 90.3662 388.252C90.4736 388.444 90.6201 388.599 90.8057 388.716C90.9912 388.83 91.2012 388.887 91.4355 388.887C91.7936 388.887 92.0898 388.765 92.3242 388.521C92.5618 388.273 92.6807 387.967 92.6807 387.603C92.6807 387.244 92.5635 386.943 92.3291 386.699C92.098 386.452 91.805 386.328 91.4502 386.328C91.2158 386.328 91.0042 386.387 90.8154 386.504C90.6266 386.618 90.4769 386.772 90.3662 386.968C90.2588 387.16 90.2051 387.373 90.2051 387.607Z" fill="black"/>
<path id="Loja 4" d="M100.889 123V115.725H102.422V121.73H105.542V123H100.889ZM109.004 123.107C108.454 123.107 107.977 122.99 107.573 122.756C107.173 122.518 106.864 122.189 106.646 121.77C106.431 121.346 106.323 120.855 106.323 120.295C106.323 119.732 106.431 119.239 106.646 118.815C106.864 118.392 107.173 118.063 107.573 117.829C107.977 117.591 108.454 117.473 109.004 117.473C109.557 117.473 110.034 117.591 110.435 117.829C110.838 118.063 111.147 118.392 111.362 118.815C111.58 119.239 111.689 119.732 111.689 120.295C111.689 120.855 111.58 121.346 111.362 121.77C111.147 122.189 110.838 122.518 110.435 122.756C110.034 122.99 109.557 123.107 109.004 123.107ZM107.861 120.285C107.861 120.76 107.957 121.153 108.149 121.462C108.341 121.771 108.628 121.926 109.009 121.926C109.386 121.926 109.671 121.771 109.863 121.462C110.055 121.153 110.151 120.76 110.151 120.285C110.151 119.81 110.055 119.419 109.863 119.113C109.671 118.807 109.386 118.654 109.009 118.654C108.628 118.654 108.341 118.807 108.149 119.113C107.957 119.419 107.861 119.81 107.861 120.285ZM112.686 117.541H114.199V123.273C114.199 123.902 114.014 124.353 113.643 124.626C113.275 124.903 112.77 125.041 112.129 125.041H111.826V123.859H112.021C112.266 123.859 112.437 123.807 112.534 123.703C112.635 123.602 112.686 123.451 112.686 123.249V117.541ZM113.438 116.843C113.213 116.843 113.019 116.768 112.856 116.618C112.697 116.468 112.617 116.288 112.617 116.076C112.617 115.865 112.697 115.686 112.856 115.539C113.019 115.389 113.213 115.314 113.438 115.314C113.662 115.314 113.854 115.389 114.014 115.539C114.176 115.686 114.258 115.865 114.258 116.076C114.258 116.288 114.176 116.468 114.014 116.618C113.854 116.768 113.662 116.843 113.438 116.843ZM116.968 123.103C116.447 123.103 116.014 122.967 115.669 122.697C115.327 122.424 115.156 122.017 115.156 121.477C115.156 121.07 115.251 120.751 115.439 120.52C115.632 120.285 115.884 120.114 116.196 120.007C116.509 119.896 116.844 119.825 117.202 119.792C117.677 119.746 118.016 119.699 118.218 119.65C118.423 119.598 118.525 119.484 118.525 119.309V119.284C118.525 119.06 118.454 118.885 118.311 118.762C118.167 118.638 117.961 118.576 117.69 118.576C117.42 118.576 117.199 118.635 117.026 118.752C116.857 118.869 116.745 119.019 116.689 119.201L115.312 118.981C115.443 118.506 115.716 118.137 116.133 117.873C116.553 117.606 117.074 117.473 117.695 117.473C118.099 117.473 118.478 117.536 118.833 117.663C119.191 117.79 119.481 117.99 119.702 118.264C119.924 118.534 120.034 118.885 120.034 119.318V123H118.604V122.238H118.56C118.426 122.495 118.228 122.704 117.964 122.863C117.703 123.023 117.371 123.103 116.968 123.103ZM116.597 121.428C116.597 121.636 116.672 121.794 116.821 121.901C116.974 122.006 117.166 122.058 117.397 122.058C117.729 122.058 118.001 121.962 118.213 121.77C118.428 121.577 118.535 121.338 118.535 121.052V120.471C118.477 120.51 118.384 120.546 118.257 120.578C118.133 120.611 118.001 120.638 117.861 120.661C117.721 120.681 117.596 120.699 117.485 120.715C117.218 120.754 117.004 120.83 116.841 120.944C116.678 121.055 116.597 121.216 116.597 121.428ZM123.447 121.721V120.515L126.484 115.725H128.408V120.49H129.312V121.721H128.408V123H126.938V121.721H123.447ZM124.995 120.49H126.968V117.404H126.909L124.995 120.432V120.49Z" fill="black"/>
<circle id="A67" cx="156.5" cy="302.5" r="7.5" fill="white"/>
<circle id="A68" cx="176.5" cy="302.5" r="7.5" fill="white"/>
<circle id="A70" cx="216.5" cy="302.5" r="7.5" fill="white"/>
<circle id="A72" cx="256.5" cy="302.5" r="7.5" fill="white"/>
<circle id="A73" cx="276.5" cy="302.5" r="7.5" fill="white"/>
<circle id="A74" cx="296.5" cy="302.5" r="7.5" fill="white"/>
<circle id="A75" cx="316.5" cy="302.5" r="7.5" fill="white"/>
<circle id="A76" cx="336.5" cy="302.5" r="7.5" fill="white"/>
<circle id="A77" cx="356.5" cy="302.5" r="7.5" fill="white"/>
<circle id="A78" cx="376.5" cy="302.5" r="7.5" fill="white"/>
<circle id="A79" cx="396.5" cy="302.5" r="7.5" fill="white"/>
<circle id="A80" cx="416.5" cy="302.5" r="7.5" fill="white"/>
<circle id="A81" cx="436.5" cy="302.5" r="7.5" fill="white"/>
<circle id="A82" cx="436.5" cy="302.5" r="7.5" fill="white"/>
<circle id="A83" cx="456.5" cy="302.5" r="7.5" fill="white"/>
<circle id="A84" cx="476.5" cy="302.5" r="7.5" fill="white"/>
<circle id="A85" cx="496.5" cy="302.5" r="7.5" fill="white"/>
<circle id="A86" cx="516.5" cy="302.5" r="7.5" fill="white"/>
<circle id="A71" cx="236.5" cy="302.5" r="7.5" fill="white"/>
<circle id="A69" cx="196.5" cy="302.5" r="7.5" fill="white"/>
<path id="SCENA" d="M315.477 423.185C313.889 423.185 312.62 422.821 311.671 422.095C310.728 421.368 310.235 420.299 310.194 418.887H312.875C312.922 419.543 313.18 420.038 313.648 420.372C314.123 420.7 314.721 420.864 315.441 420.864C316.145 420.864 316.707 420.715 317.129 420.416C317.557 420.117 317.771 419.728 317.771 419.247C317.771 418.808 317.577 418.471 317.19 418.236C316.804 417.996 316.253 417.791 315.538 417.621L314.105 417.27C313.004 417.006 312.134 416.587 311.495 416.013C310.862 415.433 310.546 414.659 310.546 413.692C310.546 412.901 310.76 412.21 311.188 411.618C311.615 411.021 312.201 410.558 312.945 410.229C313.695 409.896 314.548 409.729 315.503 409.729C316.476 409.729 317.325 409.896 318.052 410.229C318.778 410.563 319.344 411.026 319.748 411.618C320.158 412.21 320.369 412.893 320.381 413.666H317.709C317.662 413.156 317.445 412.758 317.059 412.471C316.672 412.184 316.147 412.04 315.485 412.04C314.812 412.04 314.293 412.181 313.93 412.462C313.566 412.737 313.385 413.089 313.385 413.517C313.385 413.979 313.587 414.331 313.991 414.571C314.396 414.806 314.882 414.99 315.45 415.125L316.619 415.415C317.381 415.585 318.058 415.834 318.649 416.162C319.241 416.484 319.707 416.9 320.047 417.41C320.387 417.914 320.557 418.529 320.557 419.256C320.557 420.457 320.108 421.412 319.212 422.121C318.315 422.83 317.07 423.185 315.477 423.185ZM328.282 423.176C327.116 423.176 326.073 422.912 325.153 422.385C324.233 421.857 323.507 421.093 322.974 420.091C322.446 419.089 322.183 417.879 322.183 416.461C322.183 415.031 322.449 413.815 322.982 412.813C323.521 411.812 324.251 411.047 325.171 410.52C326.097 409.992 327.134 409.729 328.282 409.729C329.296 409.729 330.207 409.916 331.016 410.291C331.83 410.666 332.495 411.208 333.011 411.917C333.526 412.626 333.843 413.484 333.96 414.492H331.165C331.06 413.771 330.752 413.206 330.242 412.796C329.732 412.38 329.1 412.172 328.344 412.172C327.336 412.172 326.524 412.547 325.909 413.297C325.294 414.041 324.986 415.096 324.986 416.461C324.986 417.855 325.294 418.916 325.909 419.643C326.53 420.369 327.339 420.732 328.335 420.732C329.067 420.732 329.688 420.539 330.198 420.152C330.714 419.766 331.036 419.224 331.165 418.526H333.96C333.86 419.329 333.573 420.085 333.099 420.794C332.63 421.503 331.988 422.077 331.174 422.517C330.365 422.956 329.401 423.176 328.282 423.176ZM335.955 423V409.904H344.779V412.189H338.715V415.266H344.313V417.507H338.715V420.715H344.797V423H335.955ZM357.928 409.904V423H355.528L349.842 414.765H349.736V423H346.977V409.904H349.402L355.054 418.14H355.168V409.904H357.928ZM362.463 423H359.492L364.019 409.904H367.578L372.096 423H369.134L368.158 420.012H363.43L362.463 423ZM364.133 417.85H367.455L365.847 412.893H365.741L364.133 417.85Z" fill="black"/>
<circle id="A31" cx="490.5" cy="348.5" r="7.5" fill="white"/>
<circle id="A49" cx="167.5" cy="318.5" r="7.5" fill="white"/>
<circle id="A32" cx="179.5" cy="333.5" r="7.5" fill="white"/>
<circle id="A33" cx="199.5" cy="333.5" r="7.5" fill="white"/>
<circle id="A34" cx="219.5" cy="333.5" r="7.5" fill="white"/>
<circle id="A36" cx="259.5" cy="333.5" r="7.5" fill="white"/>
<circle id="A35" cx="238.5" cy="333.5" r="7.5" fill="white"/>
<circle id="A37" cx="279.5" cy="333.5" r="7.5" fill="white"/>
<circle id="A38" cx="299.5" cy="333.5" r="7.5" fill="white"/>
<circle id="A39" cx="319.5" cy="333.5" r="7.5" fill="white"/>
<circle id="A16" cx="190.5" cy="348.5" r="7.5" fill="white"/>
<circle id="A1" cx="200.5" cy="363.5" r="7.5" fill="white"/>
<circle id="A2" cx="220.5" cy="363.5" r="7.5" fill="white"/>
<circle id="A3" cx="240.5" cy="363.5" r="7.5" fill="white"/>
<circle id="A4" cx="260.5" cy="363.5" r="7.5" fill="white"/>
<circle id="A5" cx="280.5" cy="363.5" r="7.5" fill="white"/>
<circle id="A6" cx="300.5" cy="363.5" r="7.5" fill="white"/>
<circle id="A7" cx="320.5" cy="363.5" r="7.5" fill="white"/>
<circle id="A8" cx="340.5" cy="363.5" r="7.5" fill="white"/>
<circle id="A9" cx="360.5" cy="363.5" r="7.5" fill="white"/>
<circle id="A10" cx="380.5" cy="363.5" r="7.5" fill="white"/>
<circle id="A11" cx="400.5" cy="363.5" r="7.5" fill="white"/>
<circle id="A12" cx="420.5" cy="363.5" r="7.5" fill="white"/>
<circle id="A13" cx="440.5" cy="363.5" r="7.5" fill="white"/>
<circle id="A14" cx="460.5" cy="363.5" r="7.5" fill="white"/>
<circle id="A15" cx="480.5" cy="363.5" r="7.5" fill="white"/>
<path id="R1" d="M176.648 367V361.18H178.938C179.599 361.18 180.112 361.353 180.477 361.699C180.844 362.046 181.027 362.507 181.027 363.082C181.027 363.48 180.939 363.822 180.762 364.105C180.585 364.387 180.331 364.598 180 364.738L181.234 367H179.875L178.773 364.938H177.875V367H176.648ZM177.875 363.949H178.707C179.41 363.949 179.762 363.66 179.762 363.082C179.762 362.793 179.674 362.572 179.5 362.418C179.326 362.264 179.06 362.188 178.703 362.188H177.875V363.949ZM184.352 361.18V367H183.125V362.348H183.09L181.758 363.188V362.094L183.199 361.18H184.352Z" fill="black"/>
<path id="R6" d="M150.727 260V254.18H153.016C153.677 254.18 154.19 254.353 154.555 254.699C154.922 255.046 155.105 255.507 155.105 256.082C155.105 256.48 155.017 256.822 154.84 257.105C154.663 257.387 154.409 257.598 154.078 257.738L155.312 260H153.953L152.852 257.938H151.953V260H150.727ZM151.953 256.949H152.785C153.488 256.949 153.84 256.66 153.84 256.082C153.84 255.793 153.753 255.572 153.578 255.418C153.404 255.264 153.138 255.188 152.781 255.188H151.953V256.949ZM158.203 260.078C157.904 260.078 157.615 260.029 157.336 259.93C157.06 259.831 156.811 259.671 156.59 259.449C156.371 259.228 156.198 258.935 156.07 258.57C155.943 258.203 155.879 257.754 155.879 257.223C155.879 256.572 155.975 256.013 156.168 255.547C156.363 255.081 156.638 254.724 156.992 254.477C157.346 254.227 157.763 254.102 158.242 254.102C158.63 254.102 158.973 254.177 159.27 254.328C159.566 254.479 159.805 254.684 159.984 254.941C160.167 255.197 160.277 255.484 160.316 255.805H159.109C159.06 255.602 158.958 255.443 158.805 255.328C158.654 255.214 158.466 255.156 158.242 255.156C157.865 255.156 157.577 255.32 157.379 255.648C157.184 255.977 157.086 256.424 157.086 256.992H157.125C157.255 256.737 157.452 256.536 157.715 256.391C157.978 256.245 158.268 256.172 158.586 256.172C158.932 256.172 159.24 256.253 159.508 256.414C159.776 256.576 159.987 256.798 160.141 257.082C160.297 257.363 160.375 257.686 160.375 258.051C160.375 258.444 160.284 258.794 160.102 259.102C159.919 259.406 159.665 259.646 159.34 259.82C159.014 259.992 158.635 260.078 158.203 260.078ZM157.207 258.086C157.207 258.273 157.25 258.445 157.336 258.602C157.422 258.755 157.539 258.879 157.688 258.973C157.836 259.064 158.004 259.109 158.191 259.109C158.478 259.109 158.715 259.012 158.902 258.816C159.092 258.618 159.188 258.374 159.188 258.082C159.188 257.796 159.094 257.555 158.906 257.359C158.721 257.161 158.487 257.062 158.203 257.062C158.016 257.062 157.846 257.109 157.695 257.203C157.544 257.294 157.424 257.418 157.336 257.574C157.25 257.728 157.207 257.898 157.207 258.086Z" fill="black"/>
<path id="R2" d="M166.859 352V346.18H169.148C169.81 346.18 170.323 346.353 170.688 346.699C171.055 347.046 171.238 347.507 171.238 348.082C171.238 348.48 171.15 348.822 170.973 349.105C170.796 349.387 170.542 349.598 170.211 349.738L171.445 352H170.086L168.984 349.938H168.086V352H166.859ZM168.086 348.949H168.918C169.621 348.949 169.973 348.66 169.973 348.082C169.973 347.793 169.885 347.572 169.711 347.418C169.536 347.264 169.271 347.188 168.914 347.188H168.086V348.949ZM172.078 352V351.117L174.152 349.195C174.415 348.94 174.616 348.719 174.754 348.531C174.892 348.344 174.961 348.135 174.961 347.906C174.961 347.651 174.876 347.449 174.707 347.301C174.54 347.152 174.329 347.078 174.074 347.078C173.806 347.078 173.591 347.159 173.43 347.32C173.271 347.479 173.191 347.698 173.191 347.977H172.023C172.023 347.594 172.111 347.263 172.285 346.984C172.46 346.703 172.701 346.486 173.008 346.332C173.318 346.178 173.676 346.102 174.082 346.102C174.499 346.102 174.862 346.176 175.172 346.324C175.482 346.47 175.723 346.673 175.895 346.934C176.066 347.191 176.152 347.49 176.152 347.828C176.152 348.047 176.108 348.263 176.02 348.477C175.934 348.688 175.781 348.923 175.562 349.184C175.344 349.444 175.034 349.757 174.633 350.121L173.785 350.953V350.996H176.23V352H172.078Z" fill="black"/>
<path id="R7" d="M150.539 239V233.18H152.828C153.49 233.18 154.003 233.353 154.367 233.699C154.734 234.046 154.918 234.507 154.918 235.082C154.918 235.48 154.829 235.822 154.652 236.105C154.475 236.387 154.221 236.598 153.891 236.738L155.125 239H153.766L152.664 236.938H151.766V239H150.539ZM151.766 235.949H152.598C153.301 235.949 153.652 235.66 153.652 235.082C153.652 234.793 153.565 234.572 153.391 234.418C153.216 234.264 152.951 234.188 152.594 234.188H151.766V235.949ZM155.992 239L158.398 234.227V234.188H155.594V233.18H159.68V234.203L157.262 239H155.992Z" fill="black"/>
<path id="R3" d="M157.738 337V331.18H160.027C160.689 331.18 161.202 331.353 161.566 331.699C161.934 332.046 162.117 332.507 162.117 333.082C162.117 333.48 162.029 333.822 161.852 334.105C161.674 334.387 161.421 334.598 161.09 334.738L162.324 337H160.965L159.863 334.938H158.965V337H157.738ZM158.965 333.949H159.797C160.5 333.949 160.852 333.66 160.852 333.082C160.852 332.793 160.764 332.572 160.59 332.418C160.415 332.264 160.15 332.188 159.793 332.188H158.965V333.949ZM165.109 337.078C164.685 337.078 164.307 337.005 163.977 336.859C163.646 336.714 163.385 336.512 163.195 336.254C163.005 335.993 162.908 335.694 162.902 335.355H164.141C164.148 335.569 164.245 335.741 164.43 335.871C164.615 335.999 164.842 336.062 165.113 336.062C165.395 336.062 165.624 335.991 165.801 335.848C165.98 335.702 166.07 335.514 166.07 335.285C166.07 335.051 165.975 334.859 165.785 334.711C165.595 334.562 165.335 334.488 165.004 334.488H164.461V333.582H165.004C165.283 333.582 165.509 333.512 165.684 333.371C165.861 333.23 165.949 333.046 165.949 332.816C165.949 332.598 165.872 332.421 165.719 332.285C165.568 332.147 165.368 332.078 165.121 332.078C164.868 332.078 164.652 332.145 164.473 332.277C164.296 332.408 164.204 332.583 164.199 332.805H163.02C163.025 332.469 163.12 332.173 163.305 331.918C163.49 331.663 163.74 331.464 164.055 331.32C164.372 331.174 164.73 331.102 165.129 331.102C165.53 331.102 165.88 331.174 166.18 331.32C166.482 331.466 166.716 331.663 166.883 331.91C167.052 332.158 167.137 332.435 167.137 332.742C167.137 333.068 167.035 333.34 166.832 333.559C166.629 333.775 166.365 333.913 166.039 333.973V334.016C166.466 334.07 166.79 334.219 167.012 334.461C167.236 334.703 167.348 335.005 167.348 335.367C167.348 335.698 167.251 335.992 167.059 336.25C166.868 336.508 166.604 336.711 166.266 336.859C165.93 337.005 165.544 337.078 165.109 337.078Z" fill="black"/>
<path id="R8" d="M150.719 219V213.18H153.008C153.669 213.18 154.182 213.353 154.547 213.699C154.914 214.046 155.098 214.507 155.098 215.082C155.098 215.48 155.009 215.822 154.832 216.105C154.655 216.387 154.401 216.598 154.07 216.738L155.305 219H153.945L152.844 216.938H151.945V219H150.719ZM151.945 215.949H152.777C153.48 215.949 153.832 215.66 153.832 215.082C153.832 214.793 153.745 214.572 153.57 214.418C153.396 214.264 153.13 214.188 152.773 214.188H151.945V215.949ZM158.125 219.078C157.685 219.078 157.296 219.007 156.957 218.863C156.618 218.72 156.353 218.525 156.16 218.277C155.967 218.03 155.871 217.749 155.871 217.434C155.871 217.191 155.926 216.969 156.035 216.766C156.147 216.562 156.298 216.393 156.488 216.258C156.681 216.122 156.896 216.035 157.133 215.996V215.961C156.82 215.896 156.566 215.743 156.371 215.504C156.178 215.264 156.082 214.986 156.082 214.668C156.082 214.366 156.171 214.098 156.348 213.863C156.525 213.626 156.767 213.44 157.074 213.305C157.382 213.169 157.732 213.102 158.125 213.102C158.518 213.102 158.868 213.171 159.176 213.309C159.483 213.444 159.725 213.63 159.902 213.867C160.079 214.102 160.168 214.368 160.168 214.668C160.168 214.986 160.069 215.264 159.871 215.504C159.676 215.743 159.426 215.896 159.121 215.961V215.996C159.353 216.035 159.564 216.122 159.754 216.258C159.947 216.393 160.099 216.562 160.211 216.766C160.326 216.969 160.383 217.191 160.383 217.434C160.383 217.749 160.285 218.03 160.09 218.277C159.897 218.525 159.63 218.72 159.289 218.863C158.951 219.007 158.562 219.078 158.125 219.078ZM157.281 214.797C157.281 215.026 157.361 215.214 157.52 215.359C157.678 215.505 157.88 215.578 158.125 215.578C158.367 215.578 158.568 215.505 158.727 215.359C158.888 215.214 158.969 215.026 158.969 214.797C158.969 214.57 158.889 214.387 158.73 214.246C158.574 214.103 158.372 214.031 158.125 214.031C157.875 214.031 157.672 214.102 157.516 214.242C157.359 214.383 157.281 214.568 157.281 214.797ZM157.148 217.336C157.148 217.583 157.238 217.785 157.418 217.941C157.598 218.098 157.833 218.176 158.125 218.176C158.417 218.176 158.652 218.098 158.832 217.941C159.012 217.785 159.102 217.583 159.102 217.336C159.102 217.086 159.009 216.88 158.824 216.719C158.639 216.557 158.406 216.477 158.125 216.477C157.841 216.477 157.607 216.557 157.422 216.719C157.24 216.878 157.148 217.083 157.148 217.336Z" fill="black"/>
<path id="R4" d="M144.668 322V316.18H146.957C147.618 316.18 148.132 316.353 148.496 316.699C148.863 317.046 149.047 317.507 149.047 318.082C149.047 318.48 148.958 318.822 148.781 319.105C148.604 319.387 148.35 319.598 148.02 319.738L149.254 322H147.895L146.793 319.938H145.895V322H144.668ZM145.895 318.949H146.727C147.43 318.949 147.781 318.66 147.781 318.082C147.781 317.793 147.694 317.572 147.52 317.418C147.345 317.264 147.079 317.188 146.723 317.188H145.895V318.949ZM149.801 320.977V320.012L152.23 316.18H153.77V319.992H154.492V320.977H153.77V322H152.594V320.977H149.801ZM151.039 319.992H152.617V317.523H152.57L151.039 319.945V319.992Z" fill="black"/>
<path id="R9" d="M150.727 199V193.18H153.016C153.677 193.18 154.19 193.353 154.555 193.699C154.922 194.046 155.105 194.507 155.105 195.082C155.105 195.48 155.017 195.822 154.84 196.105C154.663 196.387 154.409 196.598 154.078 196.738L155.312 199H153.953L152.852 196.938H151.953V199H150.727ZM151.953 195.949H152.785C153.488 195.949 153.84 195.66 153.84 195.082C153.84 194.793 153.753 194.572 153.578 194.418C153.404 194.264 153.138 194.188 152.781 194.188H151.953V195.949ZM158.055 193.094C158.354 193.094 158.642 193.145 158.918 193.246C159.197 193.345 159.445 193.507 159.664 193.73C159.883 193.952 160.056 194.245 160.184 194.609C160.311 194.974 160.375 195.422 160.375 195.953C160.375 196.607 160.277 197.168 160.082 197.637C159.889 198.103 159.616 198.461 159.262 198.711C158.91 198.961 158.495 199.086 158.016 199.086C157.628 199.086 157.284 199.01 156.984 198.859C156.688 198.706 156.448 198.499 156.266 198.238C156.086 197.978 155.977 197.688 155.938 197.367H157.148C157.195 197.573 157.296 197.736 157.449 197.855C157.603 197.973 157.792 198.031 158.016 198.031C158.393 198.031 158.68 197.866 158.875 197.535C159.073 197.202 159.172 196.751 159.172 196.184H159.133C159.003 196.439 158.806 196.639 158.543 196.785C158.28 196.931 157.99 197.004 157.672 197.004C157.328 197.004 157.021 196.923 156.75 196.762C156.479 196.6 156.266 196.378 156.109 196.094C155.956 195.81 155.879 195.487 155.879 195.125C155.879 194.732 155.97 194.382 156.152 194.074C156.335 193.767 156.589 193.526 156.914 193.352C157.242 193.177 157.622 193.091 158.055 193.094ZM157.07 195.094C157.07 195.383 157.163 195.625 157.348 195.82C157.535 196.016 157.771 196.113 158.055 196.113C158.245 196.113 158.414 196.068 158.562 195.977C158.714 195.883 158.832 195.758 158.918 195.602C159.007 195.445 159.051 195.273 159.051 195.086C159.051 194.901 159.008 194.732 158.922 194.578C158.836 194.424 158.719 194.302 158.57 194.211C158.422 194.117 158.253 194.07 158.062 194.07C157.779 194.07 157.542 194.169 157.352 194.367C157.164 194.562 157.07 194.805 157.07 195.094Z" fill="black"/>
<path id="R5" d="M134.793 306V300.18H137.082C137.743 300.18 138.257 300.353 138.621 300.699C138.988 301.046 139.172 301.507 139.172 302.082C139.172 302.48 139.083 302.822 138.906 303.105C138.729 303.387 138.475 303.598 138.145 303.738L139.379 306H138.02L136.918 303.938H136.02V306H134.793ZM136.02 302.949H136.852C137.555 302.949 137.906 302.66 137.906 302.082C137.906 301.793 137.819 301.572 137.645 301.418C137.47 301.264 137.204 301.188 136.848 301.188H136.02V302.949ZM142.145 306.078C141.743 306.078 141.384 306.005 141.066 305.859C140.751 305.711 140.503 305.507 140.32 305.246C140.138 304.986 140.043 304.689 140.035 304.355H141.23C141.241 304.579 141.335 304.762 141.512 304.902C141.689 305.04 141.9 305.109 142.145 305.109C142.431 305.109 142.665 305.016 142.848 304.828C143.033 304.638 143.125 304.392 143.125 304.09C143.125 303.785 143.031 303.536 142.844 303.344C142.659 303.151 142.419 303.055 142.125 303.055C141.951 303.055 141.784 303.09 141.625 303.16C141.469 303.23 141.346 303.326 141.258 303.445L140.156 303.25L140.434 300.18H143.992V301.188H141.449L141.301 302.645H141.332C141.436 302.501 141.591 302.383 141.797 302.289C142.003 302.195 142.233 302.148 142.488 302.148C142.84 302.148 143.152 302.23 143.426 302.395C143.702 302.559 143.918 302.784 144.074 303.07C144.233 303.357 144.312 303.686 144.312 304.059C144.312 304.449 144.221 304.797 144.039 305.102C143.857 305.406 143.603 305.646 143.277 305.82C142.952 305.992 142.574 306.078 142.145 306.078Z" fill="black"/>
<path id="R10" d="M148.895 179V173.18H151.184C151.845 173.18 152.358 173.353 152.723 173.699C153.09 174.046 153.273 174.507 153.273 175.082C153.273 175.48 153.185 175.822 153.008 176.105C152.831 176.387 152.577 176.598 152.246 176.738L153.48 179H152.121L151.02 176.938H150.121V179H148.895ZM150.121 175.949H150.953C151.656 175.949 152.008 175.66 152.008 175.082C152.008 174.793 151.921 174.572 151.746 174.418C151.572 174.264 151.306 174.188 150.949 174.188H150.121V175.949ZM156.598 173.18V179H155.371V174.348H155.336L154.004 175.188V174.094L155.445 173.18H156.598ZM159.859 179.078C159.117 179.078 158.539 178.816 158.125 178.293C157.714 177.77 157.508 177.036 157.508 176.094C157.508 175.151 157.715 174.417 158.129 173.891C158.543 173.365 159.12 173.102 159.859 173.102C160.599 173.102 161.176 173.365 161.59 173.891C162.004 174.417 162.211 175.151 162.211 176.094C162.211 177.036 162.004 177.77 161.59 178.293C161.178 178.816 160.602 179.078 159.859 179.078ZM158.762 176.094C158.762 176.724 158.855 177.21 159.043 177.551C159.233 177.892 159.505 178.062 159.859 178.062C160.214 178.062 160.484 177.892 160.672 177.551C160.862 177.21 160.957 176.724 160.957 176.094C160.957 175.461 160.862 174.973 160.672 174.629C160.484 174.285 160.214 174.113 159.859 174.113C159.508 174.113 159.237 174.286 159.047 174.633C158.857 174.977 158.762 175.464 158.762 176.094Z" fill="black"/>
<path id="R11" d="M149.918 159V153.18H152.207C152.868 153.18 153.382 153.353 153.746 153.699C154.113 154.046 154.297 154.507 154.297 155.082C154.297 155.48 154.208 155.822 154.031 156.105C153.854 156.387 153.6 156.598 153.27 156.738L154.504 159H153.145L152.043 156.938H151.145V159H149.918ZM151.145 155.949H151.977C152.68 155.949 153.031 155.66 153.031 155.082C153.031 154.793 152.944 154.572 152.77 154.418C152.595 154.264 152.329 154.188 151.973 154.188H151.145V155.949ZM157.621 153.18V159H156.395V154.348H156.359L155.027 155.188V154.094L156.469 153.18H157.621ZM161.082 153.18V159H159.855V154.348H159.82L158.488 155.188V154.094L159.93 153.18H161.082Z" fill="black"/>
<path id="R12" d="M148.629 138V132.18H150.918C151.579 132.18 152.092 132.353 152.457 132.699C152.824 133.046 153.008 133.507 153.008 134.082C153.008 134.48 152.919 134.822 152.742 135.105C152.565 135.387 152.311 135.598 151.98 135.738L153.215 138H151.855L150.754 135.938H149.855V138H148.629ZM149.855 134.949H150.688C151.391 134.949 151.742 134.66 151.742 134.082C151.742 133.793 151.655 133.572 151.48 133.418C151.306 133.264 151.04 133.188 150.684 133.188H149.855V134.949ZM156.332 132.18V138H155.105V133.348H155.07L153.738 134.188V133.094L155.18 132.18H156.332ZM157.309 138V137.117L159.383 135.195C159.646 134.94 159.846 134.719 159.984 134.531C160.122 134.344 160.191 134.135 160.191 133.906C160.191 133.651 160.107 133.449 159.938 133.301C159.771 133.152 159.56 133.078 159.305 133.078C159.036 133.078 158.822 133.159 158.66 133.32C158.501 133.479 158.422 133.698 158.422 133.977H157.254C157.254 133.594 157.341 133.263 157.516 132.984C157.69 132.703 157.931 132.486 158.238 132.332C158.548 132.178 158.906 132.102 159.312 132.102C159.729 132.102 160.092 132.176 160.402 132.324C160.712 132.47 160.953 132.673 161.125 132.934C161.297 133.191 161.383 133.49 161.383 133.828C161.383 134.047 161.339 134.263 161.25 134.477C161.164 134.688 161.012 134.923 160.793 135.184C160.574 135.444 160.264 135.757 159.863 136.121L159.016 136.953V136.996H161.461V138H157.309Z" fill="black"/>
<path id="R12_2" d="M148.629 138V132.18H150.918C151.579 132.18 152.092 132.353 152.457 132.699C152.824 133.046 153.008 133.507 153.008 134.082C153.008 134.48 152.919 134.822 152.742 135.105C152.565 135.387 152.311 135.598 151.98 135.738L153.215 138H151.855L150.754 135.938H149.855V138H148.629ZM149.855 134.949H150.688C151.391 134.949 151.742 134.66 151.742 134.082C151.742 133.793 151.655 133.572 151.48 133.418C151.306 133.264 151.04 133.188 150.684 133.188H149.855V134.949ZM156.332 132.18V138H155.105V133.348H155.07L153.738 134.188V133.094L155.18 132.18H156.332ZM157.309 138V137.117L159.383 135.195C159.646 134.94 159.846 134.719 159.984 134.531C160.122 134.344 160.191 134.135 160.191 133.906C160.191 133.651 160.107 133.449 159.938 133.301C159.771 133.152 159.56 133.078 159.305 133.078C159.036 133.078 158.822 133.159 158.66 133.32C158.501 133.479 158.422 133.698 158.422 133.977H157.254C157.254 133.594 157.341 133.263 157.516 132.984C157.69 132.703 157.931 132.486 158.238 132.332C158.548 132.178 158.906 132.102 159.312 132.102C159.729 132.102 160.092 132.176 160.402 132.324C160.712 132.47 160.953 132.673 161.125 132.934C161.297 133.191 161.383 133.49 161.383 133.828C161.383 134.047 161.339 134.263 161.25 134.477C161.164 134.688 161.012 134.923 160.793 135.184C160.574 135.444 160.264 135.757 159.863 136.121L159.016 136.953V136.996H161.461V138H157.309Z" fill="black"/>
<path id="R13" d="M227.508 88V82.1797H229.797C230.458 82.1797 230.971 82.3529 231.336 82.6992C231.703 83.0456 231.887 83.5065 231.887 84.082C231.887 84.4805 231.798 84.8216 231.621 85.1055C231.444 85.3867 231.19 85.5977 230.859 85.7383L232.094 88H230.734L229.633 85.9375H228.734V88H227.508ZM228.734 84.9492H229.566C230.27 84.9492 230.621 84.6602 230.621 84.082C230.621 83.793 230.534 83.5716 230.359 83.418C230.185 83.2643 229.919 83.1875 229.562 83.1875H228.734V84.9492ZM235.211 82.1797V88H233.984V83.3477H233.949L232.617 84.1875V83.0938L234.059 82.1797H235.211ZM238.34 88.0781C237.915 88.0781 237.538 88.0052 237.207 87.8594C236.876 87.7135 236.616 87.5117 236.426 87.2539C236.236 86.9935 236.138 86.694 236.133 86.3555H237.371C237.379 86.569 237.475 86.7409 237.66 86.8711C237.845 86.9987 238.073 87.0625 238.344 87.0625C238.625 87.0625 238.854 86.9909 239.031 86.8477C239.211 86.7018 239.301 86.5143 239.301 86.2852C239.301 86.0508 239.206 85.8594 239.016 85.7109C238.826 85.5625 238.565 85.4883 238.234 85.4883H237.691V84.582H238.234C238.513 84.582 238.74 84.5117 238.914 84.3711C239.091 84.2305 239.18 84.0456 239.18 83.8164C239.18 83.5977 239.103 83.4206 238.949 83.2852C238.798 83.1471 238.599 83.0781 238.352 83.0781C238.099 83.0781 237.883 83.1445 237.703 83.2773C237.526 83.4076 237.435 83.5833 237.43 83.8047H236.25C236.255 83.4688 236.35 83.1732 236.535 82.918C236.72 82.6628 236.97 82.4635 237.285 82.3203C237.603 82.1745 237.961 82.1016 238.359 82.1016C238.76 82.1016 239.111 82.1745 239.41 82.3203C239.712 82.4661 239.947 82.6628 240.113 82.9102C240.283 83.1576 240.367 83.4349 240.367 83.7422C240.367 84.0677 240.266 84.3398 240.062 84.5586C239.859 84.7747 239.595 84.9128 239.27 84.9727V85.0156C239.697 85.0703 240.021 85.2188 240.242 85.4609C240.466 85.7031 240.578 86.0052 240.578 86.3672C240.578 86.6979 240.482 86.9922 240.289 87.25C240.099 87.5078 239.835 87.7109 239.496 87.8594C239.16 88.0052 238.775 88.0781 238.34 88.0781Z" fill="black"/>
<path id="R14" d="M227.938 64V58.1797H230.227C230.888 58.1797 231.401 58.3529 231.766 58.6992C232.133 59.0456 232.316 59.5065 232.316 60.082C232.316 60.4805 232.228 60.8216 232.051 61.1055C231.874 61.3867 231.62 61.5977 231.289 61.7383L232.523 64H231.164L230.062 61.9375H229.164V64H227.938ZM229.164 60.9492H229.996C230.699 60.9492 231.051 60.6602 231.051 60.082C231.051 59.793 230.964 59.5716 230.789 59.418C230.615 59.2643 230.349 59.1875 229.992 59.1875H229.164V60.9492ZM235.641 58.1797V64H234.414V59.3477H234.379L233.047 60.1875V59.0938L234.488 58.1797H235.641ZM236.531 62.9766V62.0117L238.961 58.1797H240.5V61.9922H241.223V62.9766H240.5V64H239.324V62.9766H236.531ZM237.77 61.9922H239.348V59.5234H239.301L237.77 61.9453V61.9922Z" fill="black"/>
<circle id="A17" cx="210.5" cy="348.5" r="7.5" fill="white"/>
<circle id="A18" cx="230.5" cy="348.5" r="7.5" fill="white"/>
<circle id="A19" cx="250.5" cy="348.5" r="7.5" fill="white"/>
<circle id="A20" cx="270.5" cy="348.5" r="7.5" fill="white"/>
<circle id="A40" cx="339.5" cy="333.5" r="7.5" fill="white"/>
<circle id="A41" cx="359.5" cy="333.5" r="7.5" fill="white"/>
<circle id="A42" cx="379.5" cy="333.5" r="7.5" fill="white"/>
<circle id="A43" cx="399.5" cy="333.5" r="7.5" fill="white"/>
<circle id="A44" cx="419.5" cy="333.5" r="7.5" fill="white"/>
<circle id="A45" cx="439.5" cy="333.5" r="7.5" fill="white"/>
<circle id="A46" cx="459.5" cy="333.5" r="7.5" fill="white"/>
<circle id="A47" cx="479.5" cy="333.5" r="7.5" fill="white"/>
<circle id="A48" cx="499.5" cy="333.5" r="7.5" fill="white"/>
<circle id="A50" cx="187.5" cy="318.5" r="7.5" fill="white"/>
<circle id="A51" cx="207.5" cy="318.5" r="7.5" fill="white"/>
<circle id="A52" cx="227.5" cy="318.5" r="7.5" fill="white"/>
<circle id="A53" cx="247.5" cy="318.5" r="7.5" fill="white"/>
<circle id="A54" cx="267.5" cy="318.5" r="7.5" fill="white"/>
<circle id="A55" cx="287.5" cy="318.5" r="7.5" fill="white"/>
<circle id="A56" cx="307.5" cy="318.5" r="7.5" fill="white"/>
<circle id="A57" cx="327.5" cy="318.5" r="7.5" fill="white"/>
<circle id="A58" cx="347.5" cy="318.5" r="7.5" fill="white"/>
<circle id="A59" cx="367.5" cy="318.5" r="7.5" fill="white"/>
<circle id="A60" cx="387.5" cy="318.5" r="7.5" fill="white"/>
<circle id="A61" cx="407.5" cy="318.5" r="7.5" fill="white"/>
<circle id="A62" cx="427.5" cy="318.5" r="7.5" fill="white"/>
<circle id="A63" cx="447.5" cy="318.5" r="7.5" fill="white"/>
<circle id="A64" cx="467.5" cy="318.5" r="7.5" fill="white"/>
<circle id="A65" cx="487.5" cy="318.5" r="7.5" fill="white"/>
<circle id="A66" cx="507.5" cy="318.5" r="7.5" fill="white"/>
<circle id="A21" cx="290.5" cy="348.5" r="7.5" fill="white"/>
<circle id="A22" cx="310.5" cy="348.5" r="7.5" fill="white"/>
<circle id="A23" cx="330.5" cy="348.5" r="7.5" fill="white"/>
<circle id="A24" cx="350.5" cy="348.5" r="7.5" fill="white"/>
<circle id="A25" cx="370.5" cy="348.5" r="7.5" fill="white"/>
<circle id="A26" cx="390.5" cy="348.5" r="7.5" fill="white"/>
<circle id="A27" cx="410.5" cy="348.5" r="7.5" fill="white"/>
<circle id="A28" cx="430.5" cy="348.5" r="7.5" fill="white"/>
<circle id="A29" cx="450.5" cy="348.5" r="7.5" fill="white"/>
<circle id="A30" cx="470.5" cy="348.5" r="7.5" fill="white"/>
<circle id="A241" cx="66.8953" cy="211.816" r="7.5" transform="rotate(-90.56 66.8953 211.816)" fill="white"/>
<circle id="A240" cx="66.7096" cy="192.817" r="7.5" transform="rotate(-90.56 66.7096 192.817)" fill="white"/>
<circle id="A238" cx="85.826" cy="204.63" r="7.5" transform="rotate(-90.56 85.826 204.63)" fill="white"/>
<circle id="A239" cx="86.0214" cy="224.629" r="7.5" transform="rotate(-90.56 86.0214 224.629)" fill="white"/>
<circle id="A237" cx="85.6305" cy="184.631" r="7.5" transform="rotate(-90.56 85.6305 184.631)" fill="white"/>
<circle id="A246" cx="67.8953" cy="352.816" r="7.5" transform="rotate(-90.56 67.8953 352.816)" fill="white"/>
<circle id="A245" cx="67.7096" cy="333.817" r="7.5" transform="rotate(-90.56 67.7096 333.817)" fill="white"/>
<circle id="A243" cx="86.826" cy="345.63" r="7.5" transform="rotate(-90.56 86.826 345.63)" fill="white"/>
<circle id="A244" cx="87.0214" cy="365.629" r="7.5" transform="rotate(-90.56 87.0214 365.629)" fill="white"/>
<circle id="A242" cx="86.6305" cy="325.631" r="7.5" transform="rotate(-90.56 86.6305 325.631)" fill="white"/>
<circle id="A216" cx="410.575" cy="62.5745" r="7.5" transform="rotate(49.4591 410.575 62.5745)" fill="white"/>
<circle id="A214" cx="371.575" cy="62.5745" r="7.5" transform="rotate(49.4591 371.575 62.5745)" fill="white"/>
<circle id="A215" cx="391.575" cy="62.5745" r="7.5" transform="rotate(49.4591 391.575 62.5745)" fill="white"/>
<circle id="A212" cx="332.575" cy="62.5745" r="7.5" transform="rotate(49.4591 332.575 62.5745)" fill="white"/>
<circle id="A213" cx="352.575" cy="62.5745" r="7.5" transform="rotate(49.4591 352.575 62.5745)" fill="white"/>
<circle id="A208" cx="254.574" cy="62.5745" r="7.5" transform="rotate(49.4591 254.574 62.5745)" fill="white"/>
<circle id="A209" cx="274.575" cy="62.5745" r="7.5" transform="rotate(49.4591 274.575 62.5745)" fill="white"/>
<circle id="A210" cx="293.575" cy="62.5745" r="7.5" transform="rotate(49.4591 293.575 62.5745)" fill="white"/>
<circle id="A211" cx="313.575" cy="62.5745" r="7.5" transform="rotate(49.4591 313.575 62.5745)" fill="white"/>
<circle id="A207" cx="410.575" cy="84.5745" r="7.5" transform="rotate(49.4591 410.575 84.5745)" fill="white"/>
<circle id="A205" cx="371.575" cy="84.5745" r="7.5" transform="rotate(49.4591 371.575 84.5745)" fill="white"/>
<circle id="A206" cx="391.575" cy="84.5745" r="7.5" transform="rotate(49.4591 391.575 84.5745)" fill="white"/>
<circle id="A203" cx="332.575" cy="84.5745" r="7.5" transform="rotate(49.4591 332.575 84.5745)" fill="white"/>
<circle id="A204" cx="352.575" cy="84.5745" r="7.5" transform="rotate(49.4591 352.575 84.5745)" fill="white"/>
<circle id="A199" cx="254.574" cy="84.5745" r="7.5" transform="rotate(49.4591 254.574 84.5745)" fill="white"/>
<circle id="A200" cx="274.575" cy="84.5745" r="7.5" transform="rotate(49.4591 274.575 84.5745)" fill="white"/>
<circle id="A201" cx="293.575" cy="84.5745" r="7.5" transform="rotate(49.4591 293.575 84.5745)" fill="white"/>
<circle id="A202" cx="313.575" cy="84.5745" r="7.5" transform="rotate(49.4591 313.575 84.5745)" fill="white"/>
<circle id="A236" cx="104.806" cy="77.2026" r="7.5" transform="rotate(-40.8833 104.806 77.2026)" fill="white"/>
<circle id="A235" cx="119.171" cy="64.7667" r="7.5" transform="rotate(-40.8833 119.171 64.7667)" fill="white"/>
<circle id="A233" cx="122.534" cy="86.9858" r="7.5" transform="rotate(-40.8833 122.534 86.9858)" fill="white"/>
<circle id="A234" cx="107.413" cy="100.076" r="7.5" transform="rotate(-40.8833 107.413 100.076)" fill="white"/>
<circle id="A232" cx="137.655" cy="73.8954" r="7.5" transform="rotate(-40.8833 137.655 73.8954)" fill="white"/>
<circle id="A231" cx="552.273" cy="66.8534" r="7.5" transform="rotate(49.4591 552.273 66.8534)" fill="white"/>
<circle id="A230" cx="564.623" cy="81.2923" r="7.5" transform="rotate(49.4591 564.623 81.2923)" fill="white"/>
<circle id="A228" cx="542.384" cy="84.5228" r="7.5" transform="rotate(49.4591 542.384 84.5228)" fill="white"/>
<circle id="A229" cx="529.384" cy="69.324" r="7.5" transform="rotate(49.4591 529.384 69.324)" fill="white"/>
<circle id="A227" cx="555.384" cy="99.7217" r="7.5" transform="rotate(49.4591 555.384 99.7217)" fill="white"/>
<circle id="A226" cx="605.683" cy="196.647" r="7.5" transform="rotate(90.259 605.683 196.647)" fill="white"/>
<circle id="A225" cx="605.597" cy="215.646" r="7.5" transform="rotate(90.259 605.597 215.646)" fill="white"/>
<circle id="A223" cx="586.651" cy="203.561" r="7.5" transform="rotate(90.259 586.651 203.561)" fill="white"/>
<circle id="A224" cx="586.742" cy="183.561" r="7.5" transform="rotate(90.259 586.742 183.561)" fill="white"/>
<circle id="A222" cx="586.561" cy="223.56" r="7.5" transform="rotate(90.259 586.561 223.56)" fill="white"/>
<circle id="A221" cx="605.683" cy="337.647" r="7.5" transform="rotate(90.259 605.683 337.647)" fill="white"/>
<circle id="A220" cx="605.597" cy="356.646" r="7.5" transform="rotate(90.259 605.597 356.646)" fill="white"/>
<circle id="A218" cx="586.651" cy="344.561" r="7.5" transform="rotate(90.259 586.651 344.561)" fill="white"/>
<circle id="A219" cx="586.742" cy="324.561" r="7.5" transform="rotate(90.259 586.742 324.561)" fill="white"/>
<circle id="A217" cx="586.561" cy="364.561" r="7.5" transform="rotate(90.259 586.561 364.561)" fill="white"/>
<circle id="A127" cx="358.5" cy="216.5" r="7.5" fill="white"/>
<circle id="A128" cx="377.5" cy="216.5" r="7.5" fill="white"/>
<circle id="A129" cx="396.5" cy="216.5" r="7.5" fill="white"/>
<circle id="A130" cx="415.5" cy="216.5" r="7.5" fill="white"/>
<circle id="A131" cx="434.5" cy="216.5" r="7.5" fill="white"/>
<circle id="A132" cx="453.5" cy="216.5" r="7.5" fill="white"/>
<circle id="A133" cx="472.5" cy="216.5" r="7.5" fill="white"/>
<circle id="A134" cx="491.5" cy="216.5" r="7.5" fill="white"/>
<circle id="A95" cx="358.5" cy="256.5" r="7.5" fill="white"/>
<circle id="A96" cx="377.5" cy="256.5" r="7.5" fill="white"/>
<circle id="A97" cx="396.5" cy="256.5" r="7.5" fill="white"/>
<circle id="A98" cx="415.5" cy="256.5" r="7.5" fill="white"/>
<circle id="A99" cx="434.5" cy="256.5" r="7.5" fill="white"/>
<circle id="A100" cx="453.5" cy="256.5" r="7.5" fill="white"/>
<circle id="A101" cx="472.5" cy="256.5" r="7.5" fill="white"/>
<circle id="A102" cx="491.5" cy="256.5" r="7.5" fill="white"/>
<circle id="A111" cx="358.5" cy="236.5" r="7.5" fill="white"/>
<circle id="A112" cx="377.5" cy="236.5" r="7.5" fill="white"/>
<circle id="A113" cx="396.5" cy="236.5" r="7.5" fill="white"/>
<circle id="A114" cx="415.5" cy="236.5" r="7.5" fill="white"/>
<circle id="A115" cx="434.5" cy="236.5" r="7.5" fill="white"/>
<circle id="A116" cx="453.5" cy="236.5" r="7.5" fill="white"/>
<circle id="A117" cx="472.5" cy="236.5" r="7.5" fill="white"/>
<circle id="A118" cx="491.5" cy="236.5" r="7.5" fill="white"/>
<circle id="A143" cx="358.5" cy="196.5" r="7.5" fill="white"/>
<circle id="A144" cx="377.5" cy="196.5" r="7.5" fill="white"/>
<circle id="A145" cx="396.5" cy="196.5" r="7.5" fill="white"/>
<circle id="A146" cx="415.5" cy="196.5" r="7.5" fill="white"/>
<circle id="A147" cx="434.5" cy="196.5" r="7.5" fill="white"/>
<circle id="A148" cx="453.5" cy="196.5" r="7.5" fill="white"/>
<circle id="A149" cx="472.5" cy="196.5" r="7.5" fill="white"/>
<circle id="A150" cx="491.5" cy="196.5" r="7.5" fill="white"/>
<circle id="A159" cx="358.5" cy="176.5" r="7.5" fill="white"/>
<circle id="A160" cx="377.5" cy="176.5" r="7.5" fill="white"/>
<circle id="A161" cx="396.5" cy="176.5" r="7.5" fill="white"/>
<circle id="A162" cx="415.5" cy="176.5" r="7.5" fill="white"/>
<circle id="A163" cx="434.5" cy="176.5" r="7.5" fill="white"/>
<circle id="A164" cx="453.5" cy="176.5" r="7.5" fill="white"/>
<circle id="A165" cx="472.5" cy="176.5" r="7.5" fill="white"/>
<circle id="A166" cx="491.5" cy="176.5" r="7.5" fill="white"/>
<circle id="A175" cx="358.5" cy="156.5" r="7.5" fill="white"/>
<circle id="A176" cx="377.5" cy="156.5" r="7.5" fill="white"/>
<circle id="A177" cx="396.5" cy="156.5" r="7.5" fill="white"/>
<circle id="A178" cx="415.5" cy="156.5" r="7.5" fill="white"/>
<circle id="A179" cx="434.5" cy="156.5" r="7.5" fill="white"/>
<circle id="A180" cx="453.5" cy="156.5" r="7.5" fill="white"/>
<circle id="A181" cx="472.5" cy="156.5" r="7.5" fill="white"/>
<circle id="A182" cx="491.5" cy="156.5" r="7.5" fill="white"/>
<circle id="A4_2" cx="358.5" cy="136.5" r="7.5" fill="white"/>
<circle id="A4_3" cx="377.5" cy="136.5" r="7.5" fill="white"/>
<circle id="A4_4" cx="396.5" cy="136.5" r="7.5" fill="white"/>
<circle id="A4_5" cx="415.5" cy="136.5" r="7.5" fill="white"/>
<circle id="A4_6" cx="434.5" cy="136.5" r="7.5" fill="white"/>
<circle id="A4_7" cx="453.5" cy="136.5" r="7.5" fill="white"/>
<circle id="A4_8" cx="472.5" cy="136.5" r="7.5" fill="white"/>
<circle id="A4_9" cx="491.5" cy="136.5" r="7.5" fill="white"/>
<circle id="A191" cx="358.5" cy="136.5" r="7.5" fill="white"/>
<circle id="A192" cx="377.5" cy="136.5" r="7.5" fill="white"/>
<circle id="A193" cx="396.5" cy="136.5" r="7.5" fill="white"/>
<circle id="A194" cx="415.5" cy="136.5" r="7.5" fill="white"/>
<circle id="A195" cx="434.5" cy="136.5" r="7.5" fill="white"/>
<circle id="A196" cx="453.5" cy="136.5" r="7.5" fill="white"/>
<circle id="A197" cx="472.5" cy="136.5" r="7.5" fill="white"/>
<circle id="A198" cx="491.5" cy="136.5" r="7.5" fill="white"/>
<circle id="A119" cx="178.5" cy="216.5" r="7.5" fill="white"/>
<circle id="A120" cx="197.5" cy="216.5" r="7.5" fill="white"/>
<circle id="A121" cx="216.5" cy="216.5" r="7.5" fill="white"/>
<circle id="A122" cx="235.5" cy="216.5" r="7.5" fill="white"/>
<circle id="A123" cx="254.5" cy="216.5" r="7.5" fill="white"/>
<circle id="A124" cx="273.5" cy="216.5" r="7.5" fill="white"/>
<circle id="A125" cx="292.5" cy="216.5" r="7.5" fill="white"/>
<circle id="A126" cx="311.5" cy="216.5" r="7.5" fill="white"/>
<circle id="A87" cx="178.5" cy="256.5" r="7.5" fill="white"/>
<circle id="A88" cx="197.5" cy="256.5" r="7.5" fill="white"/>
<circle id="A89" cx="216.5" cy="256.5" r="7.5" fill="white"/>
<circle id="A90" cx="235.5" cy="256.5" r="7.5" fill="white"/>
<circle id="A91" cx="254.5" cy="256.5" r="7.5" fill="white"/>
<circle id="A92" cx="273.5" cy="256.5" r="7.5" fill="white"/>
<circle id="A93" cx="292.5" cy="256.5" r="7.5" fill="white"/>
<circle id="A94" cx="311.5" cy="256.5" r="7.5" fill="white"/>
<circle id="A103" cx="178.5" cy="236.5" r="7.5" fill="white"/>
<circle id="A104" cx="197.5" cy="236.5" r="7.5" fill="white"/>
<circle id="A105" cx="216.5" cy="236.5" r="7.5" fill="white"/>
<circle id="A106" cx="235.5" cy="236.5" r="7.5" fill="white"/>
<circle id="A107" cx="254.5" cy="236.5" r="7.5" fill="white"/>
<circle id="A108" cx="273.5" cy="236.5" r="7.5" fill="white"/>
<circle id="A109" cx="292.5" cy="236.5" r="7.5" fill="white"/>
<circle id="A110" cx="311.5" cy="236.5" r="7.5" fill="white"/>
<circle id="A135" cx="178.5" cy="196.5" r="7.5" fill="white"/>
<circle id="A136" cx="197.5" cy="196.5" r="7.5" fill="white"/>
<circle id="A137" cx="216.5" cy="196.5" r="7.5" fill="white"/>
<circle id="A138" cx="235.5" cy="196.5" r="7.5" fill="white"/>
<circle id="A139" cx="254.5" cy="196.5" r="7.5" fill="white"/>
<circle id="A140" cx="273.5" cy="196.5" r="7.5" fill="white"/>
<circle id="A141" cx="292.5" cy="196.5" r="7.5" fill="white"/>
<circle id="A142" cx="311.5" cy="196.5" r="7.5" fill="white"/>
<circle id="A151" cx="178.5" cy="176.5" r="7.5" fill="white"/>
<circle id="A152" cx="197.5" cy="176.5" r="7.5" fill="white"/>
<circle id="A153" cx="216.5" cy="176.5" r="7.5" fill="white"/>
<circle id="A154" cx="235.5" cy="176.5" r="7.5" fill="white"/>
<circle id="A155" cx="254.5" cy="176.5" r="7.5" fill="white"/>
<circle id="A156" cx="273.5" cy="176.5" r="7.5" fill="white"/>
<circle id="A157" cx="292.5" cy="176.5" r="7.5" fill="white"/>
<circle id="A158" cx="311.5" cy="176.5" r="7.5" fill="white"/>
<circle id="A167" cx="178.5" cy="156.5" r="7.5" fill="white"/>
<circle id="A168" cx="197.5" cy="156.5" r="7.5" fill="white"/>
<circle id="A169" cx="216.5" cy="156.5" r="7.5" fill="white"/>
<circle id="A170" cx="235.5" cy="156.5" r="7.5" fill="white"/>
<circle id="A171" cx="254.5" cy="156.5" r="7.5" fill="white"/>
<circle id="A172" cx="273.5" cy="156.5" r="7.5" fill="white"/>
<circle id="A173" cx="292.5" cy="156.5" r="7.5" fill="white"/>
<circle id="A174" cx="311.5" cy="156.5" r="7.5" fill="white"/>
<circle id="A4_10" cx="178.5" cy="136.5" r="7.5" fill="white"/>
<circle id="A4_11" cx="197.5" cy="136.5" r="7.5" fill="white"/>
<circle id="A4_12" cx="216.5" cy="136.5" r="7.5" fill="white"/>
<circle id="A4_13" cx="235.5" cy="136.5" r="7.5" fill="white"/>
<circle id="A4_14" cx="254.5" cy="136.5" r="7.5" fill="white"/>
<circle id="A4_15" cx="273.5" cy="136.5" r="7.5" fill="white"/>
<circle id="A4_16" cx="292.5" cy="136.5" r="7.5" fill="white"/>
<circle id="A4_17" cx="311.5" cy="136.5" r="7.5" fill="white"/>
<circle id="A183" cx="178.5" cy="136.5" r="7.5" fill="white"/>
<circle id="A184" cx="197.5" cy="136.5" r="7.5" fill="white"/>
<circle id="A185" cx="216.5" cy="136.5" r="7.5" fill="white"/>
<circle id="A186" cx="235.5" cy="136.5" r="7.5" fill="white"/>
<circle id="A187" cx="254.5" cy="136.5" r="7.5" fill="white"/>
<circle id="A188" cx="273.5" cy="136.5" r="7.5" fill="white"/>
<circle id="A189" cx="292.5" cy="136.5" r="7.5" fill="white"/>
<circle id="A190" cx="311.5" cy="136.5" r="7.5" fill="white"/>
<path id="Balcon" d="M318.416 42V34.7246H321.326C322.127 34.7246 322.729 34.9004 323.133 35.252C323.536 35.6003 323.738 36.0462 323.738 36.5898C323.738 37.0163 323.613 37.363 323.362 37.6299C323.115 37.8936 322.802 38.0677 322.425 38.1523V38.2256C322.701 38.2386 322.96 38.3167 323.201 38.46C323.445 38.6032 323.642 38.805 323.792 39.0654C323.945 39.3226 324.021 39.6302 324.021 39.9883C324.021 40.3724 323.927 40.7174 323.738 41.0234C323.549 41.3262 323.27 41.5654 322.898 41.7412C322.527 41.9137 322.068 42 321.521 42H318.416ZM321.092 37.7715C321.404 37.7715 321.665 37.6885 321.873 37.5225C322.081 37.3564 322.186 37.1302 322.186 36.8438C322.186 36.5833 322.093 36.3734 321.907 36.2139C321.722 36.0511 321.46 35.9697 321.121 35.9697H319.949V37.7715H321.092ZM321.204 40.7451C321.634 40.7451 321.946 40.6621 322.142 40.4961C322.34 40.3301 322.439 40.1104 322.439 39.8369C322.439 39.5374 322.332 39.2917 322.117 39.0996C321.902 38.9043 321.611 38.8066 321.243 38.8066H319.949V40.7451H321.204ZM326.556 42.1025C326.035 42.1025 325.602 41.9674 325.257 41.6973C324.915 41.4238 324.744 41.0169 324.744 40.4766C324.744 40.0697 324.839 39.7507 325.027 39.5195C325.219 39.2852 325.472 39.1143 325.784 39.0068C326.097 38.8962 326.432 38.8245 326.79 38.792C327.265 38.7464 327.604 38.6992 327.806 38.6504C328.011 38.5983 328.113 38.4844 328.113 38.3086V38.2842C328.113 38.0596 328.042 37.8854 327.898 37.7617C327.755 37.638 327.549 37.5762 327.278 37.5762C327.008 37.5762 326.787 37.6348 326.614 37.752C326.445 37.8691 326.333 38.0189 326.277 38.2012L324.9 37.9814C325.031 37.5062 325.304 37.1367 325.721 36.873C326.141 36.6061 326.661 36.4727 327.283 36.4727C327.687 36.4727 328.066 36.5361 328.421 36.6631C328.779 36.79 329.069 36.9902 329.29 37.2637C329.511 37.5339 329.622 37.8854 329.622 38.3184V42H328.191V41.2383H328.147C328.014 41.4954 327.815 41.7038 327.552 41.8633C327.291 42.0228 326.959 42.1025 326.556 42.1025ZM326.185 40.4277C326.185 40.6361 326.259 40.7939 326.409 40.9014C326.562 41.0055 326.754 41.0576 326.985 41.0576C327.317 41.0576 327.589 40.9616 327.801 40.7695C328.016 40.5775 328.123 40.3382 328.123 40.0518V39.4707C328.064 39.5098 327.972 39.5456 327.845 39.5781C327.721 39.6107 327.589 39.6383 327.449 39.6611C327.309 39.6807 327.184 39.6986 327.073 39.7148C326.806 39.7539 326.591 39.8304 326.429 39.9443C326.266 40.055 326.185 40.2161 326.185 40.4277ZM332.352 34.7246V42H330.838V34.7246H332.352ZM336.023 42.1074C335.464 42.1074 334.983 41.9886 334.583 41.751C334.183 41.5133 333.875 41.1829 333.66 40.7598C333.449 40.3366 333.343 39.8483 333.343 39.2949C333.343 38.735 333.45 38.2435 333.665 37.8203C333.883 37.3971 334.192 37.0667 334.593 36.8291C334.993 36.5915 335.468 36.4727 336.019 36.4727C336.494 36.4727 336.91 36.5589 337.269 36.7314C337.627 36.904 337.91 37.1465 338.118 37.459C338.326 37.7715 338.44 38.1393 338.46 38.5625H337.034C336.992 38.2923 336.886 38.0742 336.717 37.9082C336.548 37.7389 336.323 37.6543 336.043 37.6543C335.691 37.6543 335.41 37.7959 335.198 38.0791C334.987 38.359 334.881 38.7578 334.881 39.2754C334.881 39.7962 334.985 40.2015 335.193 40.4912C335.405 40.7809 335.688 40.9258 336.043 40.9258C336.303 40.9258 336.523 40.8444 336.702 40.6816C336.881 40.5189 336.992 40.291 337.034 39.998H338.46C338.437 40.4147 338.325 40.7826 338.123 41.1016C337.921 41.4173 337.641 41.6647 337.283 41.8438C336.928 42.0195 336.508 42.1074 336.023 42.1074ZM341.902 42.1074C341.352 42.1074 340.875 41.9902 340.472 41.7559C340.071 41.5182 339.762 41.1895 339.544 40.7695C339.329 40.3464 339.222 39.8548 339.222 39.2949C339.222 38.7318 339.329 38.2386 339.544 37.8154C339.762 37.3923 340.071 37.0635 340.472 36.8291C340.875 36.5915 341.352 36.4727 341.902 36.4727C342.456 36.4727 342.933 36.5915 343.333 36.8291C343.737 37.0635 344.046 37.3923 344.261 37.8154C344.479 38.2386 344.588 38.7318 344.588 39.2949C344.588 39.8548 344.479 40.3464 344.261 40.7695C344.046 41.1895 343.737 41.5182 343.333 41.7559C342.933 41.9902 342.456 42.1074 341.902 42.1074ZM340.76 39.2852C340.76 39.7604 340.856 40.1527 341.048 40.4619C341.24 40.7712 341.526 40.9258 341.907 40.9258C342.285 40.9258 342.57 40.7712 342.762 40.4619C342.954 40.1527 343.05 39.7604 343.05 39.2852C343.05 38.8099 342.954 38.4193 342.762 38.1133C342.57 37.8073 342.285 37.6543 341.907 37.6543C341.526 37.6543 341.24 37.8073 341.048 38.1133C340.856 38.4193 340.76 38.8099 340.76 39.2852ZM347.098 38.8457V42H345.584V36.541H347.073V37.5127H347.127C347.251 37.1937 347.448 36.9414 347.718 36.7559C347.988 36.5671 348.325 36.4727 348.729 36.4727C349.298 36.4727 349.754 36.6566 350.096 37.0244C350.441 37.389 350.613 37.8903 350.613 38.5283V42H349.1V38.7969C349.1 38.4616 349.013 38.1995 348.841 38.0107C348.672 37.8219 348.436 37.7275 348.133 37.7275C347.827 37.7275 347.578 37.8268 347.386 38.0254C347.194 38.2207 347.098 38.4941 347.098 38.8457Z" fill="black"/>
</g>
</svg>
